<svg width="351" height="48" viewBox="0 0 351 48" fill="none" xmlns="http://www.w3.org/2000/svg">
<g clip-path="url(#clip0_270_468)">
<path d="M117.55 26.98C117.44 33.84 114.3 38.99 108.58 42.61C106.48 43.94 104.31 44.64 101.84 44.97C97.11 45.6 92.85 44.36 89 41.65C84.85 38.73 82.38 34.69 81.62 29.7C81.26 27.34 81.29 24.92 81.98 22.58C82.08 22.24 82.38 21.85 82.7 21.7C85.62 20.33 88.57 19.06 91.48 17.67C94.2 16.37 96.9 15.02 99.56 13.61C101.62 12.52 103.61 11.29 105.65 10.15C105.84 10.05 106.15 10.03 106.35 10.11C109.67 11.54 112.29 13.6 114.32 16.65C116.4 19.77 117.63 23.16 117.56 26.97L117.55 26.98ZM110.44 27.15C110.66 20.88 105.87 15.63 99.12 15.86C93.44 16.05 88.55 20.43 88.53 26.92C88.5 33.71 93.48 38 99.44 38.09C105.97 38.19 110.6 33.06 110.44 27.15Z" fill="#3B1C13"/>
<path d="M48.96 32.49C48.96 33.65 48.96 34.75 48.96 35.85C48.95 37.32 49.23 37.61 50.7 37.61C54.74 37.61 58.77 37.61 62.81 37.61C64.05 37.61 64.41 37.99 64.41 39.25C64.41 40.57 64.41 41.89 64.41 43.21C64.41 44.13 63.85 44.65 62.94 44.65C56.58 44.64 50.22 44.63 43.86 44.62C43.62 44.62 43.37 44.62 43.13 44.6C42.34 44.52 41.95 44.17 41.95 43.38C41.92 40.42 41.93 37.46 41.95 34.5C41.95 34.31 42.21 34.01 42.4 33.96C44.5 33.44 46.61 32.96 48.71 32.48C48.78 32.46 48.85 32.48 48.98 32.49H48.96Z" fill="#3B1C13"/>
<path d="M5.61999 39.7C7.61999 39.48 9.52998 39.3 11.44 39.06C14.12 38.72 17 38.36 19.68 37.99C21.41 37.75 23.15 37.52 24.87 37.22C27.31 36.81 29.75 36.34 32.19 35.9C32.76 35.8 33.34 35.66 33.91 35.6C34.06 35.58 34.3 35.78 34.4 35.94C34.71 36.44 34.9 37.04 35.26 37.49C35.79 38.15 36.41 38.76 37.05 39.32C37.64 39.84 37.55 40.39 37.12 40.85C36.01 42.05 34.85 43.21 33.69 44.35C33.27 44.76 32.76 44.76 32.31 44.35C31.72 43.81 31.14 43.24 30.56 42.69C29.6 41.78 29.02 41.81 27.89 42.39C26.32 43.19 24.71 43.97 23.03 44.51C21.3 45.07 19.45 45.29 17.62 45.14C13.14 44.78 9.00999 43.15 5.75999 40C5.70999 39.95 5.68999 39.88 5.60999 39.72L5.61999 39.7Z" fill="#3B1C13"/>
<path d="M75.94 24.28C75.94 24.9 75.94 25.44 75.94 25.97C75.94 31.42 75.94 36.88 75.94 42.33C75.94 42.57 75.95 42.82 75.97 43.06C76.02 43.97 75.48 44.64 74.6 44.65C73.11 44.66 71.62 44.65 70.13 44.6C69.3 44.58 68.99 44.25 68.98 43.42C68.94 40.59 68.92 37.75 68.91 34.92C68.9 32.52 68.91 30.13 68.91 27.73C68.91 27.01 69.05 26.59 69.89 26.35C71.66 25.85 73.38 25.14 75.12 24.53C75.36 24.44 75.62 24.39 75.95 24.29L75.94 24.28Z" fill="#3B1C13"/>
<path d="M14.8 36.39C14.5 36.51 14.37 36.6 14.24 36.61C11.14 36.95 7.84997 37.29 4.74997 37.61C4.55997 37.63 4.27997 37.48 4.14997 37.32C1.55997 34.14 0.109971 30.53 -2.93939e-05 26.4C-0.0500294 24.33 0.139971 22.29 0.769971 20.33C1.35997 18.5 2.16997 16.72 3.38997 15.22C4.42997 13.95 5.38997 12.95 6.60997 11.84C8.31997 10.52 10.14 9.38 12.05 8.69C14.93 7.65 18.1 7.53 21.11 7.91C24.77 8.37 27.9 9.99 30.61 12.43C33.31 14.86 35.12 17.87 35.98 21.37C36.79 24.66 36.59 27.95 35.66 31.26C35.2 32.89 34.24 33.42 32.82 33.66C30.02 34.15 27.22 34.66 24.41 35.11C24.13 35.16 23.72 35.01 23.52 34.8C21.73 33.04 19.97 31.26 18.23 29.44C17.78 28.97 17.12 28.56 17.32 27.73C17.37 27.51 17.48 27.27 17.63 27.12C18.63 26.11 19.66 25.11 20.68 24.11C21.54 23.26 21.94 23.26 22.82 24.13C24.31 25.61 25.77 27.11 27.25 28.59C27.42 28.76 27.6 28.94 27.8 29.07C28.28 29.39 28.76 29.28 28.97 28.79C29.2 28.26 29.37 27.64 29.37 27.07C29.36 25.83 29.32 24.58 29.11 23.37C28.67 20.92 27.45 18.87 25.53 17.27C22.52 14.76 19.06 14.1 15.36 15.07C11 16.21 7.72997 19.71 7.18997 24.46C6.90997 26.9 7.32997 29.16 8.46997 31.32C9.63997 33.52 11.62 35.02 13.9 35.98C14.14 36.08 14.38 36.2 14.78 36.37L14.8 36.39Z" fill="#009DE0"/>
<path d="M41.83 19.75C41.83 16.2 41.82 12.66 41.84 9.10998C41.84 8.49998 41.66 7.71998 42.56 7.46998C42.77 7.40998 42.99 7.36998 43.2 7.36998C44.64 7.36998 46.09 7.35998 47.53 7.36998C48.49 7.36998 48.87 7.72998 48.88 8.68998C48.9 10.74 48.89 12.8 48.88 14.85C48.87 19.72 48.85 24.59 48.85 29.45C48.85 30.01 48.69 30.28 48.12 30.4C46.36 30.78 44.62 31.23 42.86 31.61C41.98 31.8 41.82 31.66 41.82 30.74C41.82 27.07 41.82 23.4 41.82 19.73L41.83 19.75Z" fill="#009DE0"/>
<path d="M68.82 24.45C68.8 24.06 68.78 23.8 68.78 23.54C68.78 18.7 68.78 13.86 68.78 9.01998C68.78 8.70998 68.78 8.37998 68.87 8.07998C68.99 7.61998 69.28 7.34998 69.82 7.34998C71.38 7.36998 72.95 7.34998 74.51 7.34998C75.5 7.34998 75.84 7.70998 75.84 8.66998C75.84 12.9 75.84 17.13 75.85 21.35C75.85 21.93 75.64 22.2 75.07 22.38C73.34 22.93 71.64 23.56 69.92 24.15C69.59 24.26 69.24 24.32 68.8 24.43L68.82 24.45Z" fill="#009DE0"/>
<path d="M103.05 8.99C96.72 12.89 90.2 16.1 83.26 18.88C84.75 15.1 87.13 12.29 90.49 10.36C94.93 7.82 100.12 7.95 103.06 8.99H103.05Z" fill="#009DE0"/>
<path d="M129.67 41.36C129.67 43.35 128.86 44.72 126.59 44.72C124.32 44.72 123.56 43.33 123.56 41.39C123.56 39.45 124.39 38.04 126.64 38.04C128.89 38.04 129.67 39.41 129.67 41.36ZM128.03 41.39C128.03 40.07 127.68 39.48 126.6 39.48C125.52 39.48 125.2 40.07 125.2 41.36C125.2 42.65 125.58 43.28 126.63 43.28C127.68 43.28 128.03 42.66 128.03 41.39Z" fill="#3B1C13"/>
<path d="M130.61 38.18H132.98V39.57C133.18 38.97 133.93 38.04 134.79 38.04C135.08 38.04 135.49 38.07 135.77 38.11L135.64 39.9L134.51 39.69C133.91 39.73 133.38 40.04 133.09 40.53V43.22H134.51V44.56H130.62V43.34L131.54 43.09V39.53H130.62V38.17L130.61 38.18Z" fill="#3B1C13"/>
<path d="M141.62 39.36C141.84 39.64 141.98 40.14 141.98 40.63C141.98 42.1 140.87 42.87 139.29 42.87C138.9 42.87 138.46 42.83 138.18 42.73L138.12 43.58H140.25C141.58 43.58 142.41 44.18 142.41 45.37C142.41 46.79 141.15 47.72 139.05 47.72C136.95 47.72 136.18 47.05 136.18 46.05C136.18 45.32 136.81 44.86 137.26 44.76C136.92 44.59 136.71 44.2 136.71 43.85C136.71 43.23 137.13 42.83 137.49 42.55C136.79 42.17 136.4 41.46 136.4 40.53C136.4 39.07 137.37 38.02 139.3 38.02C139.92 38.02 140.63 38.23 140.98 38.5C141.43 37.81 142.07 37.62 142.74 37.66L142.77 39.2L141.61 39.34L141.62 39.36ZM137.71 45.69C137.71 46.18 138.03 46.53 139.11 46.53C140.1 46.53 140.78 46.22 140.78 45.63C140.78 45.27 140.58 44.97 139.93 44.97H138.14C137.92 45.14 137.72 45.36 137.72 45.68L137.71 45.69ZM140.51 40.58C140.51 39.89 140.13 39.42 139.25 39.42C138.31 39.42 137.95 39.9 137.95 40.58C137.95 41.22 138.26 41.7 139.25 41.7C140.17 41.7 140.51 41.24 140.51 40.58Z" fill="#3B1C13"/>
<path d="M145.17 40.44H143.8C143.66 40.17 143.59 39.88 143.59 39.57C143.59 38.69 144.4 38.04 146.17 38.04C148.06 38.04 148.73 38.6 148.73 40.42V42.9C148.73 43.17 148.87 43.28 149.09 43.28C149.23 43.28 149.36 43.27 149.47 43.24V44.57C149.2 44.63 148.87 44.65 148.56 44.65C147.75 44.65 147.33 44.26 147.24 43.67C146.89 44.19 146.19 44.72 145.14 44.72C143.95 44.72 143.22 44.02 143.22 42.89C143.22 41.49 144.44 41.04 146.33 40.9L147.13 40.82V39.53C146.92 39.47 146.44 39.45 146.16 39.45C145.71 39.45 145.53 39.46 145.17 39.53V40.44ZM145.66 43.42C146.25 43.42 146.79 43.14 147.13 42.83V41.85L146.33 41.95C145.21 42.08 144.89 42.3 144.89 42.76C144.89 43.19 145.16 43.42 145.66 43.42Z" fill="#3B1C13"/>
<path d="M150.24 43.23H151.07V39.55H150.27V38.19H152.46V38.95C152.78 38.56 153.34 38.05 154.62 38.05C156.08 38.05 156.78 38.92 156.78 40.57V43.23H157.59V44.57H154.3V43.23H155.22V40.74C155.22 39.97 154.95 39.52 154.02 39.52C153.47 39.52 152.9 39.79 152.63 40V43.24H153.53V44.58H150.25V43.24L150.24 43.23Z" fill="#3B1C13"/>
<path d="M158.23 43.23H159.57V39.55H158.23V38.19H161.13V43.23H162.38V44.57H158.23V43.23ZM159.31 35.97C159.31 35.3 159.73 35 160.29 35C160.78 35 161.26 35.29 161.26 35.97C161.26 36.65 160.78 36.91 160.29 36.91C159.73 36.91 159.31 36.66 159.31 35.97Z" fill="#3B1C13"/>
<path d="M167.96 40.17H166.73L166.55 39.32C166.3 39.22 166.02 39.17 165.67 39.17C165.11 39.17 164.86 39.49 164.86 39.84C164.86 40.15 164.99 40.37 165.45 40.53L166.46 40.84C167.62 41.2 168.21 41.78 168.21 42.77C168.21 43.76 167.55 44.73 165.56 44.73C164.58 44.73 163.84 44.58 163.15 44.3L163.04 42.48H164.27L164.55 43.43C164.8 43.56 165.17 43.63 165.55 43.63C166.1 43.63 166.45 43.39 166.45 42.96C166.45 42.65 166.25 42.41 165.83 42.27L164.77 41.93C163.69 41.59 163.13 40.99 163.13 40.02C163.13 39.12 163.7 38.05 165.68 38.05C166.51 38.05 167.43 38.22 167.98 38.46V40.18L167.96 40.17Z" fill="#3B1C13"/>
<path d="M170.97 40.44H169.6C169.46 40.17 169.39 39.88 169.39 39.57C169.39 38.69 170.2 38.04 171.97 38.04C173.86 38.04 174.53 38.6 174.53 40.42V42.9C174.53 43.17 174.67 43.28 174.89 43.28C175.03 43.28 175.16 43.27 175.27 43.24V44.57C175 44.63 174.67 44.65 174.36 44.65C173.55 44.65 173.13 44.26 173.04 43.67C172.69 44.19 171.99 44.72 170.94 44.72C169.75 44.72 169.02 44.02 169.02 42.89C169.02 41.49 170.24 41.04 172.13 40.9L172.93 40.82V39.53C172.72 39.47 172.24 39.45 171.96 39.45C171.51 39.45 171.33 39.46 170.97 39.53V40.44ZM171.46 43.42C172.05 43.42 172.59 43.14 172.93 42.83V41.85L172.13 41.95C171.01 42.08 170.69 42.3 170.69 42.76C170.69 43.19 170.96 43.42 171.46 43.42Z" fill="#3B1C13"/>
<path d="M178.36 42.51C178.36 43.03 178.65 43.25 179.09 43.25C179.31 43.25 179.76 43.21 180.06 43.15L180.1 44.52C179.76 44.63 179.08 44.72 178.62 44.72C177.32 44.72 176.81 43.87 176.81 42.73V39.54H175.65V38.32L176.81 38.18V36.61L178.36 36.36V38.18H179.87V39.54H178.36V42.51Z" fill="#3B1C13"/>
<path d="M180.78 43.23H182.12V39.55H180.78V38.19H183.68V43.23H184.93V44.57H180.78V43.23ZM181.86 35.97C181.86 35.3 182.28 35 182.84 35C183.33 35 183.81 35.29 183.81 35.97C183.81 36.65 183.33 36.91 182.84 36.91C182.28 36.91 181.86 36.66 181.86 35.97Z" fill="#3B1C13"/>
<path d="M191.65 41.36C191.65 43.35 190.84 44.72 188.57 44.72C186.3 44.72 185.54 43.33 185.54 41.39C185.54 39.45 186.37 38.04 188.62 38.04C190.87 38.04 191.65 39.41 191.65 41.36ZM190.01 41.39C190.01 40.07 189.66 39.48 188.58 39.48C187.5 39.48 187.18 40.07 187.18 41.36C187.18 42.65 187.56 43.28 188.61 43.28C189.66 43.28 190.01 42.66 190.01 41.39Z" fill="#3B1C13"/>
<path d="M192.6 43.23H193.43V39.55H192.63V38.19H194.82V38.95C195.14 38.56 195.7 38.05 196.98 38.05C198.44 38.05 199.14 38.92 199.14 40.57V43.23H199.95V44.57H196.66V43.23H197.58V40.74C197.58 39.97 197.31 39.52 196.38 39.52C195.83 39.52 195.26 39.79 194.99 40V43.24H195.89V44.58H192.61V43.24L192.6 43.23Z" fill="#3B1C13"/>
<path d="M123.68 29.76H125.03V26.08H123.68V24.72H126.58V29.76H127.83V31.1H123.68V29.76ZM124.76 22.5C124.76 21.83 125.18 21.53 125.74 21.53C126.23 21.53 126.71 21.82 126.71 22.5C126.71 23.18 126.23 23.44 125.74 23.44C125.18 23.44 124.76 23.19 124.76 22.5Z" fill="#3B1C13"/>
<path d="M128.5 29.76H129.33V26.08H128.53V24.72H130.72V25.48C131.04 25.09 131.6 24.58 132.88 24.58C134.34 24.58 135.04 25.45 135.04 27.1V29.76H135.85V31.1H132.56V29.76H133.48V27.27C133.48 26.5 133.21 26.05 132.27 26.05C131.72 26.05 131.15 26.32 130.88 26.53V29.77H131.78V31.11H128.5V29.77V29.76Z" fill="#3B1C13"/>
<path d="M140.96 22.72H139.76V21.36H142.52V29.76H143.45V31.1H142.36C141.6 31.1 141.27 30.64 141.21 30.15C140.9 30.6 140.24 31.26 139.17 31.26C137.47 31.26 136.55 30.03 136.55 27.9C136.55 25.77 137.46 24.58 139.23 24.58C140.15 24.58 140.7 24.93 140.98 25.25V22.71L140.96 22.72ZM139.63 29.79C140.19 29.79 140.71 29.52 140.96 29.23V26.51C140.75 26.31 140.33 26.05 139.64 26.05C138.51 26.05 138.14 26.82 138.14 27.9C138.14 28.98 138.49 29.79 139.62 29.79H139.63Z" fill="#3B1C13"/>
<path d="M150.47 29.75H151.42V31.11H149.23V29.99C148.89 30.55 148.17 31.25 146.86 31.25C145.49 31.25 144.79 30.4 144.79 28.73V26.07H143.86V24.73H146.34V28.57C146.34 29.34 146.59 29.79 147.52 29.79C148.08 29.79 148.67 29.48 148.92 29.02V26.08H147.74V24.74H150.46V29.77L150.47 29.75Z" fill="#3B1C13"/>
<path d="M157.07 26.71H155.84L155.66 25.86C155.41 25.76 155.13 25.71 154.78 25.71C154.22 25.71 153.97 26.03 153.97 26.38C153.97 26.69 154.09 26.91 154.56 27.07L155.57 27.38C156.73 27.74 157.32 28.32 157.32 29.31C157.32 30.3 156.66 31.27 154.67 31.27C153.69 31.27 152.95 31.12 152.26 30.84L152.15 29.02H153.38L153.66 29.97C153.91 30.1 154.28 30.17 154.65 30.17C155.2 30.17 155.55 29.93 155.55 29.5C155.55 29.19 155.35 28.95 154.93 28.81L153.87 28.47C152.79 28.13 152.23 27.53 152.23 26.56C152.23 25.66 152.8 24.59 154.78 24.59C155.61 24.59 156.53 24.76 157.08 25V26.72L157.07 26.71Z" fill="#3B1C13"/>
<path d="M160.65 29.05C160.65 29.57 160.94 29.79 161.38 29.79C161.6 29.79 162.05 29.75 162.35 29.69L162.39 31.06C162.05 31.17 161.37 31.26 160.91 31.26C159.61 31.26 159.1 30.41 159.1 29.27V26.08H157.94V24.86L159.1 24.72V23.15L160.65 22.9V24.72H162.16V26.08H160.65V29.05Z" fill="#3B1C13"/>
<path d="M163.13 24.72H165.5V26.11C165.7 25.51 166.45 24.58 167.31 24.58C167.6 24.58 168.01 24.61 168.29 24.65L168.16 26.44L167.03 26.23C166.43 26.27 165.9 26.58 165.62 27.07V29.76H167.03V31.1H163.14V29.88L164.07 29.63V26.07H163.14V24.71L163.13 24.72Z" fill="#3B1C13"/>
<path d="M168.88 29.76H170.23V26.08H168.88V24.72H171.78V29.76H173.03V31.1H168.88V29.76ZM169.96 22.5C169.96 21.83 170.38 21.53 170.94 21.53C171.43 21.53 171.91 21.82 171.91 22.5C171.91 23.18 171.43 23.44 170.94 23.44C170.38 23.44 169.96 23.19 169.96 22.5Z" fill="#3B1C13"/>
<path d="M178.7 29.33L179.21 30.56C178.54 30.98 177.61 31.26 176.77 31.26C174.56 31.26 173.65 29.86 173.65 27.91C173.65 26.09 174.63 24.58 176.59 24.58C178.55 24.58 179.28 25.97 179.28 27.34C179.28 27.69 179.24 28.17 179.17 28.43H175.3C175.33 29.33 175.8 29.87 176.78 29.87C177.45 29.87 178.11 29.67 178.7 29.32V29.33ZM177.75 27.26C177.76 27.18 177.76 27.11 177.76 27.06C177.76 26.27 177.23 25.88 176.58 25.88C175.7 25.88 175.36 26.5 175.3 27.25H177.74L177.75 27.26Z" fill="#3B1C13"/>
<path d="M180.56 22.72H179.52V21.36H182.1V29.09C182.1 29.62 182.25 29.79 182.66 29.79C182.86 29.79 183.07 29.76 183.26 29.72L183.29 31.08C182.98 31.19 182.58 31.26 182.14 31.26C180.88 31.26 180.56 30.45 180.56 29.3V22.72Z" fill="#3B1C13"/>
<path d="M184.23 22.72H183.19V21.36H185.77V29.09C185.77 29.62 185.92 29.79 186.33 29.79C186.53 29.79 186.74 29.76 186.93 29.72L186.96 31.08C186.65 31.19 186.25 31.26 185.81 31.26C184.55 31.26 184.23 30.45 184.23 29.3V22.72Z" fill="#3B1C13"/>
<path d="M192.59 29.33L193.09 30.56C192.42 30.98 191.49 31.26 190.65 31.26C188.44 31.26 187.53 29.86 187.53 27.91C187.53 26.09 188.51 24.58 190.47 24.58C192.43 24.58 193.16 25.97 193.16 27.34C193.16 27.69 193.12 28.17 193.05 28.43H189.18C189.21 29.33 189.68 29.87 190.66 29.87C191.33 29.87 191.99 29.67 192.58 29.32L192.59 29.33ZM191.64 27.26C191.65 27.18 191.65 27.11 191.65 27.06C191.65 26.27 191.12 25.88 190.47 25.88C189.59 25.88 189.25 26.5 189.19 27.25H191.63L191.64 27.26Z" fill="#3B1C13"/>
<path d="M201.94 29.33L202.44 30.56C201.77 30.98 200.84 31.26 200 31.26C197.79 31.26 196.88 29.86 196.88 27.91C196.88 26.09 197.86 24.58 199.82 24.58C201.78 24.58 202.51 25.97 202.51 27.34C202.51 27.69 202.47 28.17 202.4 28.43H198.53C198.56 29.33 199.03 29.87 200.01 29.87C200.68 29.87 201.34 29.67 201.93 29.32L201.94 29.33ZM200.99 27.26C201 27.18 201 27.11 201 27.06C201 26.27 200.47 25.88 199.82 25.88C198.94 25.88 198.6 26.5 198.54 27.25H200.98L200.99 27.26Z" fill="#3B1C13"/>
<path d="M205.86 29.05C205.86 29.57 206.15 29.79 206.59 29.79C206.81 29.79 207.26 29.75 207.56 29.69L207.6 31.06C207.26 31.17 206.58 31.26 206.12 31.26C204.82 31.26 204.31 30.41 204.31 29.27V26.08H203.15V24.86L204.31 24.72V23.15L205.86 22.9V24.72H207.37V26.08H205.86V29.05Z" fill="#3B1C13"/>
<path d="M129.84 16.52C129.22 17.07 128.45 17.25 127.66 17.25C124.75 17.25 123.71 15.16 123.71 12.37C123.71 9.57997 124.73 7.46997 127.69 7.46997C130.65 7.46997 131.67 9.58997 131.67 12.37C131.67 13.25 131.56 14.08 131.32 14.78C131.85 15.48 132.24 16.28 132.5 17.09H130.83C130.28 15.54 128.8 13.6 126.36 13.6C126.11 13.6 125.84 13.61 125.57 13.64C125.77 14.94 126.33 15.77 127.69 15.77C128.24 15.77 128.69 15.67 129.03 15.32C129.34 15.59 129.66 16.03 129.84 16.51V16.52ZM125.48 12.28C125.77 12.25 126.1 12.22 126.43 12.22C127.72 12.22 128.87 12.64 129.81 13.31C129.85 13.03 129.87 12.72 129.87 12.37C129.87 10.34 129.41 8.94997 127.7 8.94997C125.99 8.94997 125.5 10.29 125.49 12.27L125.48 12.28Z" fill="#3B1C13"/>
<path d="M139.38 15.74H140.33V17.1H138.14V15.98C137.8 16.54 137.08 17.24 135.77 17.24C134.4 17.24 133.7 16.39 133.7 14.72V12.06H132.78V10.72H135.26V14.56C135.26 15.33 135.51 15.78 136.44 15.78C137 15.78 137.59 15.47 137.84 15.01V12.07H136.66V10.73H139.38V15.76V15.74Z" fill="#3B1C13"/>
<path d="M142.87 12.97H141.5C141.36 12.7 141.29 12.41 141.29 12.1C141.29 11.22 142.1 10.57 143.87 10.57C145.76 10.57 146.43 11.13 146.43 12.95V15.43C146.43 15.7 146.57 15.81 146.79 15.81C146.93 15.81 147.06 15.8 147.17 15.77V17.1C146.9 17.16 146.57 17.18 146.26 17.18C145.45 17.18 145.03 16.79 144.94 16.2C144.59 16.72 143.89 17.25 142.84 17.25C141.65 17.25 140.92 16.55 140.92 15.42C140.92 14.02 142.14 13.57 144.03 13.43L144.83 13.35V12.06C144.62 12 144.14 11.98 143.86 11.98C143.41 11.98 143.23 11.99 142.87 12.06V12.97ZM143.36 15.95C143.95 15.95 144.49 15.67 144.83 15.36V14.38L144.03 14.48C142.91 14.61 142.59 14.83 142.59 15.29C142.59 15.72 142.86 15.95 143.36 15.95Z" fill="#3B1C13"/>
<path d="M148.26 8.70998H147.22V7.34998H149.8V15.08C149.8 15.61 149.95 15.78 150.36 15.78C150.56 15.78 150.77 15.75 150.96 15.71L150.99 17.07C150.68 17.18 150.28 17.25 149.84 17.25C148.58 17.25 148.26 16.44 148.26 15.29V8.70998Z" fill="#3B1C13"/>
<path d="M151.54 15.75H152.88V12.07H151.54V10.71H154.44V15.75H155.69V17.09H151.54V15.75ZM152.62 8.49002C152.62 7.82002 153.04 7.52002 153.6 7.52002C154.09 7.52002 154.57 7.81002 154.57 8.49002C154.57 9.17002 154.09 9.43002 153.6 9.43002C153.04 9.43002 152.62 9.18002 152.62 8.49002Z" fill="#3B1C13"/>
<path d="M158.61 15.04C158.61 15.56 158.9 15.78 159.34 15.78C159.56 15.78 160.01 15.74 160.31 15.68L160.35 17.05C160.01 17.16 159.33 17.25 158.87 17.25C157.57 17.25 157.06 16.4 157.06 15.26V12.07H155.9V10.85L157.06 10.71V9.14001L158.61 8.89001V10.71H160.12V12.07H158.61V15.04Z" fill="#3B1C13"/>
<path d="M166.1 15.32L166.6 16.55C165.93 16.97 165 17.25 164.16 17.25C161.95 17.25 161.04 15.85 161.04 13.9C161.04 12.08 162.02 10.57 163.98 10.57C165.94 10.57 166.67 11.96 166.67 13.33C166.67 13.68 166.63 14.16 166.56 14.42H162.69C162.72 15.32 163.19 15.86 164.17 15.86C164.84 15.86 165.5 15.66 166.09 15.31L166.1 15.32ZM165.15 13.25C165.16 13.17 165.16 13.1 165.16 13.05C165.16 12.26 164.63 11.87 163.98 11.87C163.1 11.87 162.76 12.49 162.7 13.24H165.14L165.15 13.25ZM165.84 7.34998L164.62 9.62998H163.2L164.22 7.34998H165.83H165.84Z" fill="#3B1C13"/>
<path d="M170.76 8.70998H169.72V7.34998H172.3V15.08C172.3 15.61 172.45 15.78 172.86 15.78C173.06 15.78 173.27 15.75 173.46 15.71L173.49 17.07C173.18 17.18 172.78 17.25 172.34 17.25C171.08 17.25 170.76 16.44 170.76 15.29V8.70998Z" fill="#3B1C13"/>
<path d="M180.17 13.89C180.17 15.88 179.36 17.25 177.09 17.25C174.82 17.25 174.06 15.86 174.06 13.92C174.06 11.98 174.89 10.57 177.14 10.57C179.39 10.57 180.17 11.94 180.17 13.89ZM178.53 13.92C178.53 12.6 178.18 12.01 177.1 12.01C176.02 12.01 175.7 12.6 175.7 13.89C175.7 15.18 176.08 15.81 177.13 15.81C178.18 15.81 178.53 15.19 178.53 13.92Z" fill="#3B1C13"/>
<path d="M186.32 11.89C186.54 12.17 186.68 12.67 186.68 13.16C186.68 14.63 185.57 15.4 183.99 15.4C183.6 15.4 183.16 15.36 182.88 15.26L182.82 16.11H184.95C186.28 16.11 187.11 16.71 187.11 17.9C187.11 19.32 185.85 20.25 183.75 20.25C181.65 20.25 180.88 19.58 180.88 18.58C180.88 17.85 181.51 17.39 181.96 17.29C181.62 17.12 181.41 16.73 181.41 16.38C181.41 15.76 181.83 15.36 182.19 15.08C181.49 14.7 181.1 13.99 181.1 13.06C181.1 11.6 182.07 10.55 184 10.55C184.62 10.55 185.33 10.76 185.68 11.03C186.13 10.34 186.77 10.15 187.44 10.19L187.47 11.73L186.31 11.87L186.32 11.89ZM182.41 18.22C182.41 18.71 182.73 19.06 183.81 19.06C184.8 19.06 185.48 18.75 185.48 18.16C185.48 17.8 185.28 17.5 184.63 17.5H182.84C182.62 17.67 182.42 17.89 182.42 18.21L182.41 18.22ZM185.21 13.11C185.21 12.42 184.83 11.95 183.95 11.95C183.01 11.95 182.65 12.43 182.65 13.11C182.65 13.75 182.96 14.23 183.95 14.23C184.87 14.23 185.21 13.77 185.21 13.11Z" fill="#3B1C13"/>
<path d="M187.99 15.75H189.33V12.07H187.99V10.71H190.89V15.75H192.14V17.09H187.99V15.75ZM189.07 8.49002C189.07 7.82002 189.49 7.52002 190.05 7.52002C190.54 7.52002 191.02 7.81002 191.02 8.49002C191.02 9.17002 190.54 9.43002 190.05 9.43002C189.49 9.43002 189.07 9.18002 189.07 8.49002Z" fill="#3B1C13"/>
<path d="M197.73 12.7H196.5L196.32 11.85C196.07 11.75 195.79 11.7 195.44 11.7C194.88 11.7 194.63 12.02 194.63 12.37C194.63 12.68 194.76 12.9 195.22 13.06L196.23 13.37C197.39 13.73 197.98 14.31 197.98 15.3C197.98 16.29 197.32 17.26 195.33 17.26C194.35 17.26 193.61 17.11 192.92 16.83L192.81 15.01H194.04L194.32 15.96C194.57 16.09 194.94 16.16 195.32 16.16C195.87 16.16 196.22 15.92 196.22 15.49C196.22 15.18 196.02 14.94 195.6 14.8L194.54 14.46C193.46 14.12 192.9 13.52 192.9 12.55C192.9 11.65 193.47 10.58 195.45 10.58C196.28 10.58 197.2 10.75 197.75 10.99V12.71L197.73 12.7Z" fill="#3B1C13"/>
<path d="M201.31 15.04C201.31 15.56 201.6 15.78 202.04 15.78C202.26 15.78 202.71 15.74 203.01 15.68L203.05 17.05C202.71 17.16 202.03 17.25 201.57 17.25C200.27 17.25 199.76 16.4 199.76 15.26V12.07H198.6V10.85L199.76 10.71V9.14001L201.31 8.89001V10.71H202.82V12.07H201.31V15.04Z" fill="#3B1C13"/>
<path d="M203.73 15.75H205.07V12.07H203.73V10.71H206.63V15.75H207.88V17.09H203.73V15.75ZM204.81 8.49002C204.81 7.82002 205.23 7.52002 205.79 7.52002C206.28 7.52002 206.76 7.81002 206.76 8.49002C206.76 9.17002 206.28 9.43002 205.79 9.43002C205.23 9.43002 204.81 9.18002 204.81 8.49002Z" fill="#3B1C13"/>
<path d="M211.4 20.12V18.76H212.84V16.59C212.53 16.91 212.07 17.25 211.19 17.25C209.37 17.25 208.5 16 208.5 13.92C208.5 11.84 209.42 10.57 211.19 10.57C212.11 10.57 212.66 10.95 213.11 11.34L213.33 10.15H214.39V18.71L215.22 18.91V20.13H211.4V20.12ZM212.84 12.57C212.6 12.3 212.17 12.04 211.58 12.04C210.43 12.04 210.14 12.84 210.14 13.92C210.14 15 210.45 15.78 211.58 15.78C212.25 15.78 212.64 15.5 212.84 15.32V12.57Z" fill="#3B1C13"/>
<path d="M222.03 15.74H222.98V17.1H220.79V15.98C220.45 16.54 219.73 17.24 218.42 17.24C217.05 17.24 216.35 16.39 216.35 14.72V12.06H215.43V10.72H217.91V14.56C217.91 15.33 218.16 15.78 219.09 15.78C219.65 15.78 220.24 15.47 220.49 15.01V12.07H219.31V10.73H222.03V15.76V15.74Z" fill="#3B1C13"/>
<path d="M228.72 15.32L229.22 16.55C228.55 16.97 227.62 17.25 226.78 17.25C224.57 17.25 223.66 15.85 223.66 13.9C223.66 12.08 224.64 10.57 226.6 10.57C228.56 10.57 229.29 11.96 229.29 13.33C229.29 13.68 229.25 14.16 229.18 14.42H225.31C225.34 15.32 225.81 15.86 226.79 15.86C227.46 15.86 228.12 15.66 228.71 15.31L228.72 15.32ZM227.77 13.25C227.78 13.17 227.78 13.1 227.78 13.05C227.78 12.26 227.25 11.87 226.6 11.87C225.72 11.87 225.38 12.49 225.32 13.24H227.76L227.77 13.25Z" fill="#3B1C13"/>
<path d="M278.18 38C278.64 37.4 278.87 36.69 278.87 35.89C278.87 34.99 278.54 34.2 277.89 33.55C277.26 32.9 276.47 32.57 275.54 32.57H272.28C271.82 32.57 271.5 32.89 271.5 33.35V43.87C271.5 44.32 271.83 44.65 272.28 44.65H275.93C276.88 44.65 277.71 44.31 278.38 43.63C279.06 42.95 279.41 42.12 279.41 41.18V40.72C279.41 40.03 279.22 39.38 278.84 38.79C278.66 38.49 278.43 38.23 278.18 38ZM276.23 36.76C276.02 36.97 275.74 37.08 275.37 37.08H273.82V34.9H275.54C275.85 34.9 276.06 34.98 276.26 35.18C276.47 35.39 276.56 35.6 276.56 35.9C276.56 36.27 276.46 36.53 276.24 36.76M273.83 39.39H275.77C276.13 39.39 276.44 39.52 276.7 39.78C276.97 40.05 277.1 40.36 277.1 40.72V41.18C277.1 41.49 276.99 41.76 276.76 41.99C276.53 42.22 276.26 42.33 275.94 42.33H273.83V39.39Z" fill="#3B1C13"/>
<path d="M285.41 32.41C284.29 32.41 283.32 32.81 282.53 33.61C281.74 34.4 281.33 35.37 281.33 36.49V40.78C281.33 41.9 281.73 42.87 282.53 43.66C283.32 44.45 284.29 44.86 285.41 44.86C286.53 44.86 287.5 44.46 288.29 43.66C289.08 42.87 289.49 41.9 289.49 40.78V36.49C289.49 35.37 289.09 34.4 288.29 33.61C287.5 32.82 286.53 32.41 285.41 32.41ZM283.65 36.49C283.65 35.99 283.82 35.59 284.17 35.23C284.51 34.89 284.92 34.72 285.41 34.72C285.9 34.72 286.31 34.89 286.65 35.23C287.01 35.59 287.17 35.99 287.17 36.49V40.78C287.17 41.29 287.01 41.67 286.65 42.02C286.3 42.37 285.89 42.54 285.41 42.54C284.93 42.54 284.52 42.37 284.16 42.01C283.81 41.67 283.64 41.28 283.64 40.78V36.49H283.65Z" fill="#3B1C13"/>
<path d="M305.84 32.58H303.24C302.78 32.58 302.46 32.9 302.46 33.36V43.88C302.46 44.33 302.79 44.66 303.24 44.66H306.23C307.32 44.66 308.27 44.27 309.04 43.49C309.81 42.72 310.21 41.77 310.21 40.68V36.93C310.21 35.74 309.78 34.7 308.92 33.85C308.08 33.01 307.04 32.58 305.84 32.58ZM306.23 42.34H304.78V34.9H305.84C306.41 34.9 306.88 35.1 307.28 35.5C307.69 35.91 307.89 36.38 307.89 36.94V40.69C307.89 41.16 307.73 41.53 307.4 41.86C307.06 42.2 306.69 42.35 306.23 42.35" fill="#3B1C13"/>
<path d="M318.82 42.33H314.98V39.37H318.18C318.61 39.37 318.94 39.04 318.94 38.59V37.83C318.94 37.37 318.63 37.05 318.18 37.05H314.98V34.88H318.72C319.16 34.88 319.5 34.55 319.5 34.1V33.34C319.5 32.89 319.17 32.56 318.72 32.56H313.44C312.98 32.56 312.66 32.88 312.66 33.34V43.86C312.66 44.31 312.99 44.64 313.44 44.64H318.82C319.27 44.64 319.6 44.31 319.6 43.86V43.1C319.6 42.65 319.27 42.32 318.82 42.32" fill="#3B1C13"/>
<path d="M327.45 33.11C327.34 32.78 327.06 32.57 326.72 32.57H325.32C324.97 32.57 324.7 32.78 324.59 33.12L321.4 43.56C321.36 43.65 321.34 43.76 321.34 43.87C321.34 44.32 321.67 44.65 322.12 44.65H322.91C323.27 44.65 323.57 44.42 323.65 44.1L324.59 41.04H327.47L328.41 44.12V44.16C328.55 44.47 328.82 44.65 329.16 44.65H329.95C330.39 44.65 330.73 44.32 330.73 43.87C330.73 43.76 330.71 43.65 330.67 43.58L327.47 33.11H327.45ZM326.88 38.71H325.17L326.02 35.82L326.88 38.71Z" fill="#3B1C13"/>
<path d="M339.35 32.58H338.59C338.14 32.58 337.81 32.91 337.81 33.36V41.04C337.81 41.48 337.67 41.82 337.38 42.1C337.08 42.4 336.73 42.55 336.32 42.55C335.91 42.55 335.56 42.41 335.25 42.09C334.96 41.81 334.81 41.45 334.81 41.04V33.36C334.81 32.9 334.49 32.58 334.03 32.58H333.27C332.82 32.58 332.49 32.91 332.49 33.36V41.04C332.49 42.09 332.87 43 333.61 43.74C334.35 44.48 335.26 44.86 336.31 44.86C337.36 44.86 338.27 44.48 339.02 43.73C339.75 42.98 340.12 42.07 340.12 41.03V33.35C340.12 32.89 339.8 32.57 339.34 32.57" fill="#3B1C13"/>
<path d="M347.36 38.59L350.06 33.65L350.11 33.51C350.18 33.18 350.07 32.96 349.97 32.83C349.89 32.73 349.7 32.55 349.36 32.55H348.58C348.26 32.55 347.99 32.73 347.89 32.99L346.09 36.27L344.3 33.01C344.19 32.73 343.92 32.55 343.6 32.55H342.82C342.48 32.55 342.29 32.72 342.21 32.83C342.11 32.96 342 33.18 342.08 33.53L342.13 33.67L344.82 38.59L342.13 43.49L342.09 43.59C341.98 43.95 342.11 44.19 342.19 44.3C342.27 44.41 342.47 44.6 342.82 44.6H343.61C343.92 44.6 344.18 44.43 344.31 44.14L346.08 40.9L347.85 44.13C347.98 44.42 348.24 44.6 348.55 44.6H349.34C349.69 44.6 349.89 44.41 349.97 44.3C350.06 44.19 350.18 43.94 350.07 43.57L347.35 38.58L347.36 38.59Z" fill="#3B1C13"/>
<path d="M299.93 43.57L297.82 39.56C298.08 39.41 298.33 39.22 298.56 38.99C299.22 38.33 299.56 37.52 299.56 36.58V35.98C299.56 35.04 299.22 34.22 298.56 33.56C297.91 32.91 297.1 32.57 296.15 32.57H292.76C292.3 32.57 291.98 32.89 291.98 33.35V43.87C291.98 44.32 292.31 44.65 292.76 44.65H293.52C293.96 44.65 294.3 44.32 294.3 43.87V39.98H295.53L297.7 44.13C297.83 44.43 298.09 44.6 298.4 44.6H299.19C299.55 44.6 299.74 44.41 299.82 44.3C299.9 44.19 300.03 43.94 299.92 43.59C299.92 43.59 299.92 43.57 299.91 43.56M297.23 35.98V36.58C297.23 36.88 297.13 37.11 296.9 37.34C296.67 37.57 296.44 37.67 296.14 37.67H294.29V34.89H296.14C296.44 34.89 296.69 34.99 296.89 35.19C297.13 35.44 297.23 35.67 297.23 35.98Z" fill="#3B1C13"/>
<path d="M263.63 38.08H263.38C263.32 38.08 263.3 38.05 263.3 38V37.93C263.3 37.87 263.27 37.85 263.22 37.85C263.2 37.85 263.18 37.85 263.17 37.87C262.89 38.09 262.59 38.19 262.26 38.19C261.68 38.19 261.23 37.89 260.88 37.28C260.83 37.2 260.81 37.1 260.81 37.01V35.59C260.81 35.03 261.09 34.59 261.66 34.24C261.68 34.23 261.7 34.22 261.72 34.21C262.22 34.08 262.66 34.11 263.03 34.35C263.05 34.35 263.06 34.37 263.09 34.37C263.14 34.37 263.17 34.35 263.17 34.3V32.69C263.17 32.63 263.2 32.61 263.25 32.61H263.64C263.69 32.61 263.72 32.63 263.72 32.69V38C263.72 38.05 263.7 38.08 263.64 38.08M263.16 35.58C263.16 35.33 263.08 35.12 262.9 34.95C262.72 34.77 262.51 34.69 262.27 34.69C262.03 34.69 261.8 34.77 261.63 34.95C261.46 35.12 261.37 35.33 261.37 35.58V36.73C261.37 36.98 261.46 37.19 261.63 37.37C261.8 37.54 262.02 37.63 262.27 37.63C262.52 37.63 262.73 37.54 262.9 37.37C263.08 37.19 263.16 36.98 263.16 36.73V35.58Z" fill="#3B1C13"/>
<path d="M267.34 36.4H265.29C265.24 36.4 265.21 36.43 265.21 36.48V36.71C265.21 36.97 265.3 37.18 265.47 37.35C265.65 37.53 265.86 37.62 266.11 37.62C266.43 37.62 266.71 37.53 266.97 37.35C267.01 37.32 267.05 37.33 267.08 37.37L267.31 37.69C267.31 37.69 267.33 37.77 267.29 37.8C266.86 38.12 266.33 38.23 265.74 38.14C265.65 38.13 265.56 38.09 265.49 38.05C264.94 37.71 264.66 37.27 264.66 36.71V35.19C264.66 35.12 264.68 35.05 264.71 34.99C265.04 34.42 265.48 34.12 266.04 34.12C266.42 34.12 266.75 34.26 267.02 34.53C267.29 34.8 267.42 35.13 267.42 35.5V36.31C267.42 36.36 267.4 36.39 267.34 36.39M266.86 35.5C266.86 35.27 266.78 35.08 266.62 34.91C266.45 34.74 266.26 34.67 266.03 34.67C265.8 34.67 265.61 34.75 265.45 34.91C265.28 35.08 265.2 35.27 265.2 35.5V35.76C265.2 35.81 265.23 35.84 265.28 35.84H266.78C266.83 35.84 266.86 35.81 266.86 35.76V35.5Z" fill="#3B1C13"/>
<path d="M291.5 21.33V11.1C291.5 10.83 291.33 10.71 291.02 10.71H288.49C288.14 10.71 288.01 10.55 288.01 10.28V8.25001C288.01 7.98001 288.14 7.86001 288.49 7.86001H291.02C291.32 7.86001 291.5 7.70001 291.5 7.43001V2.57001C291.5 2.30001 291.67 2.14001 291.98 2.14001H294.2C294.51 2.14001 294.68 2.30001 294.68 2.57001V7.44001C294.68 7.71001 294.85 7.87001 295.16 7.87001H301.82C302.17 7.87001 302.3 7.99001 302.3 8.26001V10.29C302.3 10.56 302.17 10.72 301.82 10.72H295.16C294.85 10.72 294.68 10.84 294.68 11.11V21.34" fill="#009DE0"/>
<path d="M294.7 16.3L294.72 21.87C294.69 23.26 294.86 24.4 295.25 25.3C295.64 26.2 296.57 26.65 298.04 26.65C298.61 26.65 299.3 26.54 300.14 26.31C300.97 26.08 301.93 25.74 303.01 25.29C303.04 25.41 303.07 25.51 303.07 25.57C303.07 25.63 303.09 25.7 303.11 25.78C302.51 26.37 301.41 26.95 299.8 27.53C298.2 28.1 296.75 28.39 295.46 28.39C294.35 28.39 293.39 28.05 292.59 27.36C291.79 26.68 291.39 25.49 291.39 23.81V21.48L291.52 17.84" fill="#3B1C13"/>
<path d="M270.13 15.03V21.53C270.13 22.68 270.56 23.67 271.47 24.5C272.38 25.33 273.42 25.73 274.72 25.73C276.02 25.73 277.06 25.33 277.93 24.5C278.84 23.67 279.32 22.68 279.32 21.53V8.30997C279.32 8.02997 279.45 7.90997 279.75 7.90997H282C282.3 7.90997 282.48 8.02997 282.48 8.30997V21.53C282.48 23.47 281.7 25.13 280.18 26.52C278.66 27.9 276.84 28.62 274.72 28.62C272.6 28.62 270.73 27.91 269.22 26.52C267.7 25.14 266.97 23.47 266.97 21.53V15.03H270.13Z" fill="#3B1C13"/>
<path d="M270.13 8.41999C270.13 7.96999 269.78 7.67999 269.47 7.67999C269.02 7.67999 267.68 7.87999 266.96 7.87999C264.77 7.87999 264.54 7.79999 264.1 7.79999C263.74 7.79999 263.43 8.03999 263.43 8.48999C263.43 8.93999 263.74 9.22999 264.1 9.22999C264.55 9.22999 264.77 9.06999 266.96 9.06999V15.03H270.13V8.41999Z" fill="#009DE0"/>
<path d="M256.86 6.01C255.23 6.01 254.01 4.38 254.01 2.85C254.01 1.43 255.43 0 256.86 0C258.39 0 259.97 1.27 259.97 2.85C259.97 4.64 258.65 6.01 256.86 6.01Z" fill="#009DE0"/>
<path d="M259.35 14.28V27.66C259.35 27.94 259.19 28.1 258.92 28.1H256.9C256.58 28.1 256.46 27.94 256.46 27.66V16.2L259.35 14.28Z" fill="#3B1C13"/>
<path d="M259.35 14.28V7.82001H254.27V10.43H256.46V16.2L259.35 14.28Z" fill="#009DE0"/>
<path d="M222.83 47.03C222.71 47.03 222.58 47 222.47 46.93C222.12 46.73 222 46.29 222.2 45.94L248.53 0.359982C248.73 0.00998154 249.18 -0.110018 249.52 0.0899815C249.87 0.289982 249.99 0.729982 249.79 1.07998L223.46 46.65C223.33 46.88 223.08 47.01 222.83 47.01" fill="#009DE0"/>
</g>
<defs>
<clipPath id="clip0_270_468">
<rect width="350.13" height="47.74" fill="white"/>
</clipPath>
</defs>
</svg>
