<svg width="351" height="48" viewBox="0 0 351 48" fill="none" xmlns="http://www.w3.org/2000/svg">
<g clip-path="url(#clip0_32_2)">
<mask id="mask0_32_2" style="mask-type:luminance" maskUnits="userSpaceOnUse" x="1" y="1" width="351" height="48">
<path d="M351.13 1H1V48.74H351.13V1Z" fill="white"/>
</mask>
<g mask="url(#mask0_32_2)">
<path d="M118.55 27.98C118.44 34.84 115.3 39.99 109.58 43.61C107.48 44.94 105.31 45.64 102.84 45.97C98.11 46.6 93.85 45.36 90 42.65C85.85 39.73 83.38 35.69 82.62 30.7C82.26 28.34 82.29 25.92 82.98 23.58C83.08 23.24 83.38 22.85 83.7 22.7C86.62 21.33 89.57 20.06 92.48 18.67C95.2 17.37 97.9 16.02 100.56 14.61C102.62 13.52 104.61 12.29 106.65 11.15C106.84 11.05 107.15 11.03 107.35 11.11C110.67 12.54 113.29 14.6 115.32 17.65C117.4 20.77 118.63 24.16 118.56 27.97L118.55 27.98ZM111.44 28.15C111.66 21.88 106.87 16.63 100.12 16.86C94.44 17.05 89.55 21.43 89.53 27.92C89.5 34.71 94.48 39 100.44 39.09C106.97 39.19 111.6 34.06 111.44 28.15Z" fill="white"/>
<path d="M49.96 33.49C49.96 34.65 49.96 35.75 49.96 36.85C49.95 38.32 50.23 38.61 51.7 38.61C55.74 38.61 59.77 38.61 63.81 38.61C65.05 38.61 65.41 38.99 65.41 40.25C65.41 41.57 65.41 42.89 65.41 44.21C65.41 45.13 64.85 45.65 63.94 45.65C57.58 45.64 51.22 45.63 44.86 45.62C44.62 45.62 44.37 45.62 44.13 45.6C43.34 45.52 42.95 45.17 42.95 44.38C42.92 41.42 42.93 38.46 42.95 35.5C42.95 35.31 43.21 35.01 43.4 34.96C45.5 34.44 47.61 33.96 49.71 33.48C49.78 33.46 49.85 33.48 49.98 33.49H49.96Z" fill="white"/>
<path d="M6.61999 40.7C8.61999 40.48 10.53 40.3 12.44 40.06C15.12 39.72 18 39.36 20.68 38.99C22.41 38.75 24.15 38.52 25.87 38.22C28.31 37.81 30.75 37.34 33.19 36.9C33.76 36.8 34.34 36.66 34.91 36.6C35.06 36.58 35.3 36.78 35.4 36.94C35.71 37.44 35.9 38.04 36.26 38.49C36.79 39.15 37.41 39.76 38.05 40.32C38.64 40.84 38.55 41.39 38.12 41.85C37.01 43.05 35.85 44.21 34.69 45.35C34.27 45.76 33.76 45.76 33.31 45.35C32.72 44.81 32.14 44.24 31.56 43.69C30.6 42.78 30.02 42.81 28.89 43.39C27.32 44.19 25.71 44.97 24.03 45.51C22.3 46.07 20.45 46.29 18.62 46.14C14.14 45.78 10.01 44.15 6.75999 41C6.70999 40.95 6.68999 40.88 6.60999 40.72L6.61999 40.7Z" fill="white"/>
<path d="M76.94 25.28C76.94 25.9 76.94 26.44 76.94 26.97C76.94 32.42 76.94 37.88 76.94 43.33C76.94 43.57 76.95 43.82 76.97 44.06C77.02 44.97 76.48 45.64 75.6 45.65C74.11 45.66 72.62 45.65 71.13 45.6C70.3 45.58 69.99 45.25 69.98 44.42C69.94 41.59 69.92 38.75 69.91 35.92C69.9 33.52 69.91 31.13 69.91 28.73C69.91 28.01 70.05 27.59 70.89 27.35C72.66 26.85 74.38 26.14 76.12 25.53C76.36 25.44 76.62 25.39 76.95 25.29L76.94 25.28Z" fill="white"/>
<path d="M15.8 37.39C15.5 37.51 15.37 37.6 15.24 37.61C12.14 37.95 8.84997 38.29 5.74997 38.61C5.55997 38.63 5.27997 38.48 5.14997 38.32C2.55997 35.14 1.10997 31.53 0.999971 27.4C0.949971 25.33 1.13997 23.29 1.76997 21.33C2.35997 19.5 3.16997 17.72 4.38997 16.22C5.42997 14.95 6.38997 13.95 7.60997 12.84C9.31997 11.52 11.14 10.38 13.05 9.69C15.93 8.65 19.1 8.53 22.11 8.91C25.77 9.37 28.9 10.99 31.61 13.43C34.31 15.86 36.12 18.87 36.98 22.37C37.79 25.66 37.59 28.95 36.66 32.26C36.2 33.89 35.24 34.42 33.82 34.66C31.02 35.15 28.22 35.66 25.41 36.11C25.13 36.16 24.72 36.01 24.52 35.8C22.73 34.04 20.97 32.26 19.23 30.44C18.78 29.97 18.12 29.56 18.32 28.73C18.37 28.51 18.48 28.27 18.63 28.12C19.63 27.11 20.66 26.11 21.68 25.11C22.54 24.26 22.94 24.26 23.82 25.13C25.31 26.61 26.77 28.11 28.25 29.59C28.42 29.76 28.6 29.94 28.8 30.07C29.28 30.39 29.76 30.28 29.97 29.79C30.2 29.26 30.37 28.64 30.37 28.07C30.36 26.83 30.32 25.58 30.11 24.37C29.67 21.92 28.45 19.87 26.53 18.27C23.52 15.76 20.06 15.1 16.36 16.07C12 17.21 8.72997 20.71 8.18997 25.46C7.90997 27.9 8.32997 30.16 9.46997 32.32C10.64 34.52 12.62 36.02 14.9 36.98C15.14 37.08 15.38 37.2 15.78 37.37L15.8 37.39Z" fill="white"/>
<path d="M42.83 20.75C42.83 17.2 42.82 13.66 42.84 10.11C42.84 9.49998 42.66 8.71998 43.56 8.46998C43.77 8.40998 43.99 8.36998 44.2 8.36998C45.64 8.36998 47.09 8.35998 48.53 8.36998C49.49 8.36998 49.87 8.72998 49.88 9.68998C49.9 11.74 49.89 13.8 49.88 15.85C49.87 20.72 49.85 25.59 49.85 30.45C49.85 31.01 49.69 31.28 49.12 31.4C47.36 31.78 45.62 32.23 43.86 32.61C42.98 32.8 42.82 32.66 42.82 31.74C42.82 28.07 42.82 24.4 42.82 20.73L42.83 20.75Z" fill="white"/>
<path d="M69.82 25.45C69.8 25.06 69.78 24.8 69.78 24.54C69.78 19.7 69.78 14.86 69.78 10.02C69.78 9.70998 69.78 9.37998 69.87 9.07998C69.99 8.61998 70.28 8.34998 70.82 8.34998C72.38 8.36998 73.95 8.34998 75.51 8.34998C76.5 8.34998 76.84 8.70998 76.84 9.66998C76.84 13.9 76.84 18.13 76.85 22.35C76.85 22.93 76.64 23.2 76.07 23.38C74.34 23.93 72.64 24.56 70.92 25.15C70.59 25.26 70.24 25.32 69.8 25.43L69.82 25.45Z" fill="white"/>
<path d="M104.05 9.99C97.72 13.89 91.2 17.1 84.26 19.88C85.75 16.1 88.13 13.29 91.49 11.36C95.93 8.82 101.12 8.95 104.06 9.99H104.05Z" fill="white"/>
<path d="M130.67 42.36C130.67 44.35 129.86 45.72 127.59 45.72C125.32 45.72 124.56 44.33 124.56 42.39C124.56 40.45 125.39 39.04 127.64 39.04C129.89 39.04 130.67 40.41 130.67 42.36ZM129.03 42.39C129.03 41.07 128.68 40.48 127.6 40.48C126.52 40.48 126.2 41.07 126.2 42.36C126.2 43.65 126.58 44.28 127.63 44.28C128.68 44.28 129.03 43.66 129.03 42.39Z" fill="white"/>
<path d="M131.61 39.18H133.98V40.57C134.18 39.97 134.93 39.04 135.79 39.04C136.08 39.04 136.49 39.07 136.77 39.11L136.64 40.9L135.51 40.69C134.91 40.73 134.38 41.04 134.09 41.53V44.22H135.51V45.56H131.62V44.34L132.54 44.09V40.53H131.62V39.17L131.61 39.18Z" fill="white"/>
<path d="M142.62 40.36C142.84 40.64 142.98 41.14 142.98 41.63C142.98 43.1 141.87 43.87 140.29 43.87C139.9 43.87 139.46 43.83 139.18 43.73L139.12 44.58H141.25C142.58 44.58 143.41 45.18 143.41 46.37C143.41 47.79 142.15 48.72 140.05 48.72C137.95 48.72 137.18 48.05 137.18 47.05C137.18 46.32 137.81 45.86 138.26 45.76C137.92 45.59 137.71 45.2 137.71 44.85C137.71 44.23 138.13 43.83 138.49 43.55C137.79 43.17 137.4 42.46 137.4 41.53C137.4 40.07 138.37 39.02 140.3 39.02C140.92 39.02 141.63 39.23 141.98 39.5C142.43 38.81 143.07 38.62 143.74 38.66L143.77 40.2L142.61 40.34L142.62 40.36ZM138.71 46.69C138.71 47.18 139.03 47.53 140.11 47.53C141.1 47.53 141.78 47.22 141.78 46.63C141.78 46.27 141.58 45.97 140.93 45.97H139.14C138.92 46.14 138.72 46.36 138.72 46.68L138.71 46.69ZM141.51 41.58C141.51 40.89 141.13 40.42 140.25 40.42C139.31 40.42 138.95 40.9 138.95 41.58C138.95 42.22 139.26 42.7 140.25 42.7C141.17 42.7 141.51 42.24 141.51 41.58Z" fill="white"/>
<path d="M146.17 41.44H144.8C144.66 41.17 144.59 40.88 144.59 40.57C144.59 39.69 145.4 39.04 147.17 39.04C149.06 39.04 149.73 39.6 149.73 41.42V43.9C149.73 44.17 149.87 44.28 150.09 44.28C150.23 44.28 150.36 44.27 150.47 44.24V45.57C150.2 45.63 149.87 45.65 149.56 45.65C148.75 45.65 148.33 45.26 148.24 44.67C147.89 45.19 147.19 45.72 146.14 45.72C144.95 45.72 144.22 45.02 144.22 43.89C144.22 42.49 145.44 42.04 147.33 41.9L148.13 41.82V40.53C147.92 40.47 147.44 40.45 147.16 40.45C146.71 40.45 146.53 40.46 146.17 40.53V41.44ZM146.66 44.42C147.25 44.42 147.79 44.14 148.13 43.83V42.85L147.33 42.95C146.21 43.08 145.89 43.3 145.89 43.76C145.89 44.19 146.16 44.42 146.66 44.42Z" fill="white"/>
<path d="M151.24 44.23H152.07V40.55H151.27V39.19H153.46V39.95C153.78 39.56 154.34 39.05 155.62 39.05C157.08 39.05 157.78 39.92 157.78 41.57V44.23H158.59V45.57H155.3V44.23H156.22V41.74C156.22 40.97 155.95 40.52 155.02 40.52C154.47 40.52 153.9 40.79 153.63 41V44.24H154.53V45.58H151.25V44.24L151.24 44.23Z" fill="white"/>
<path d="M159.23 44.23H160.57V40.55H159.23V39.19H162.13V44.23H163.38V45.57H159.23V44.23ZM160.31 36.97C160.31 36.3 160.73 36 161.29 36C161.78 36 162.26 36.29 162.26 36.97C162.26 37.65 161.78 37.91 161.29 37.91C160.73 37.91 160.31 37.66 160.31 36.97Z" fill="white"/>
<path d="M168.96 41.17H167.73L167.55 40.32C167.3 40.22 167.02 40.17 166.67 40.17C166.11 40.17 165.86 40.49 165.86 40.84C165.86 41.15 165.99 41.37 166.45 41.53L167.46 41.84C168.62 42.2 169.21 42.78 169.21 43.77C169.21 44.76 168.55 45.73 166.56 45.73C165.58 45.73 164.84 45.58 164.15 45.3L164.04 43.48H165.27L165.55 44.43C165.8 44.56 166.17 44.63 166.55 44.63C167.1 44.63 167.45 44.39 167.45 43.96C167.45 43.65 167.25 43.41 166.83 43.27L165.77 42.93C164.69 42.59 164.13 41.99 164.13 41.02C164.13 40.12 164.7 39.05 166.68 39.05C167.51 39.05 168.43 39.22 168.98 39.46V41.18L168.96 41.17Z" fill="white"/>
<path d="M171.97 41.44H170.6C170.46 41.17 170.39 40.88 170.39 40.57C170.39 39.69 171.2 39.04 172.97 39.04C174.86 39.04 175.53 39.6 175.53 41.42V43.9C175.53 44.17 175.67 44.28 175.89 44.28C176.03 44.28 176.16 44.27 176.27 44.24V45.57C176 45.63 175.67 45.65 175.36 45.65C174.55 45.65 174.13 45.26 174.04 44.67C173.69 45.19 172.99 45.72 171.94 45.72C170.75 45.72 170.02 45.02 170.02 43.89C170.02 42.49 171.24 42.04 173.13 41.9L173.93 41.82V40.53C173.72 40.47 173.24 40.45 172.96 40.45C172.51 40.45 172.33 40.46 171.97 40.53V41.44ZM172.46 44.42C173.05 44.42 173.59 44.14 173.93 43.83V42.85L173.13 42.95C172.01 43.08 171.69 43.3 171.69 43.76C171.69 44.19 171.96 44.42 172.46 44.42Z" fill="white"/>
<path d="M179.36 43.51C179.36 44.03 179.65 44.25 180.09 44.25C180.31 44.25 180.76 44.21 181.06 44.15L181.1 45.52C180.76 45.63 180.08 45.72 179.62 45.72C178.32 45.72 177.81 44.87 177.81 43.73V40.54H176.65V39.32L177.81 39.18V37.61L179.36 37.36V39.18H180.87V40.54H179.36V43.51Z" fill="white"/>
<path d="M181.78 44.23H183.12V40.55H181.78V39.19H184.68V44.23H185.93V45.57H181.78V44.23ZM182.86 36.97C182.86 36.3 183.28 36 183.84 36C184.33 36 184.81 36.29 184.81 36.97C184.81 37.65 184.33 37.91 183.84 37.91C183.28 37.91 182.86 37.66 182.86 36.97Z" fill="white"/>
<path d="M192.65 42.36C192.65 44.35 191.84 45.72 189.57 45.72C187.3 45.72 186.54 44.33 186.54 42.39C186.54 40.45 187.37 39.04 189.62 39.04C191.87 39.04 192.65 40.41 192.65 42.36ZM191.01 42.39C191.01 41.07 190.66 40.48 189.58 40.48C188.5 40.48 188.18 41.07 188.18 42.36C188.18 43.65 188.56 44.28 189.61 44.28C190.66 44.28 191.01 43.66 191.01 42.39Z" fill="white"/>
<path d="M193.6 44.23H194.43V40.55H193.63V39.19H195.82V39.95C196.14 39.56 196.7 39.05 197.98 39.05C199.44 39.05 200.14 39.92 200.14 41.57V44.23H200.95V45.57H197.66V44.23H198.58V41.74C198.58 40.97 198.31 40.52 197.38 40.52C196.83 40.52 196.26 40.79 195.99 41V44.24H196.89V45.58H193.61V44.24L193.6 44.23Z" fill="white"/>
<path d="M124.68 30.76H126.03V27.08H124.68V25.72H127.58V30.76H128.83V32.1H124.68V30.76ZM125.76 23.5C125.76 22.83 126.18 22.53 126.74 22.53C127.23 22.53 127.71 22.82 127.71 23.5C127.71 24.18 127.23 24.44 126.74 24.44C126.18 24.44 125.76 24.19 125.76 23.5Z" fill="white"/>
<path d="M129.5 30.76H130.33V27.08H129.53V25.72H131.72V26.48C132.04 26.09 132.6 25.58 133.88 25.58C135.34 25.58 136.04 26.45 136.04 28.1V30.76H136.85V32.1H133.56V30.76H134.48V28.27C134.48 27.5 134.21 27.05 133.27 27.05C132.72 27.05 132.15 27.32 131.88 27.53V30.77H132.78V32.11H129.5V30.77V30.76Z" fill="white"/>
<path d="M141.96 23.72H140.76V22.36H143.52V30.76H144.45V32.1H143.36C142.6 32.1 142.27 31.64 142.21 31.15C141.9 31.6 141.24 32.26 140.17 32.26C138.47 32.26 137.55 31.03 137.55 28.9C137.55 26.77 138.46 25.58 140.23 25.58C141.15 25.58 141.7 25.93 141.98 26.25V23.71L141.96 23.72ZM140.63 30.79C141.19 30.79 141.71 30.52 141.96 30.23V27.51C141.75 27.31 141.33 27.05 140.64 27.05C139.51 27.05 139.14 27.82 139.14 28.9C139.14 29.98 139.49 30.79 140.62 30.79H140.63Z" fill="white"/>
<path d="M151.47 30.75H152.42V32.11H150.23V30.99C149.89 31.55 149.17 32.25 147.86 32.25C146.49 32.25 145.79 31.4 145.79 29.73V27.07H144.86V25.73H147.34V29.57C147.34 30.34 147.59 30.79 148.52 30.79C149.08 30.79 149.67 30.48 149.92 30.02V27.08H148.74V25.74H151.46V30.77L151.47 30.75Z" fill="white"/>
<path d="M158.07 27.71H156.84L156.66 26.86C156.41 26.76 156.13 26.71 155.78 26.71C155.22 26.71 154.97 27.03 154.97 27.38C154.97 27.69 155.09 27.91 155.56 28.07L156.57 28.38C157.73 28.74 158.32 29.32 158.32 30.31C158.32 31.3 157.66 32.27 155.67 32.27C154.69 32.27 153.95 32.12 153.26 31.84L153.15 30.02H154.38L154.66 30.97C154.91 31.1 155.28 31.17 155.65 31.17C156.2 31.17 156.55 30.93 156.55 30.5C156.55 30.19 156.35 29.95 155.93 29.81L154.87 29.47C153.79 29.13 153.23 28.53 153.23 27.56C153.23 26.66 153.8 25.59 155.78 25.59C156.61 25.59 157.53 25.76 158.08 26V27.72L158.07 27.71Z" fill="white"/>
<path d="M161.65 30.05C161.65 30.57 161.94 30.79 162.38 30.79C162.6 30.79 163.05 30.75 163.35 30.69L163.39 32.06C163.05 32.17 162.37 32.26 161.91 32.26C160.61 32.26 160.1 31.41 160.1 30.27V27.08H158.94V25.86L160.1 25.72V24.15L161.65 23.9V25.72H163.16V27.08H161.65V30.05Z" fill="white"/>
<path d="M164.13 25.72H166.5V27.11C166.7 26.51 167.45 25.58 168.31 25.58C168.6 25.58 169.01 25.61 169.29 25.65L169.16 27.44L168.03 27.23C167.43 27.27 166.9 27.58 166.62 28.07V30.76H168.03V32.1H164.14V30.88L165.07 30.63V27.07H164.14V25.71L164.13 25.72Z" fill="white"/>
<path d="M169.88 30.76H171.23V27.08H169.88V25.72H172.78V30.76H174.03V32.1H169.88V30.76ZM170.96 23.5C170.96 22.83 171.38 22.53 171.94 22.53C172.43 22.53 172.91 22.82 172.91 23.5C172.91 24.18 172.43 24.44 171.94 24.44C171.38 24.44 170.96 24.19 170.96 23.5Z" fill="white"/>
<path d="M179.7 30.33L180.21 31.56C179.54 31.98 178.61 32.26 177.77 32.26C175.56 32.26 174.65 30.86 174.65 28.91C174.65 27.09 175.63 25.58 177.59 25.58C179.55 25.58 180.28 26.97 180.28 28.34C180.28 28.69 180.24 29.17 180.17 29.43H176.3C176.33 30.33 176.8 30.87 177.78 30.87C178.45 30.87 179.11 30.67 179.7 30.32V30.33ZM178.75 28.26C178.76 28.18 178.76 28.11 178.76 28.06C178.76 27.27 178.23 26.88 177.58 26.88C176.7 26.88 176.36 27.5 176.3 28.25H178.74L178.75 28.26Z" fill="white"/>
<path d="M181.56 23.72H180.52V22.36H183.1V30.09C183.1 30.62 183.25 30.79 183.66 30.79C183.86 30.79 184.07 30.76 184.26 30.72L184.29 32.08C183.98 32.19 183.58 32.26 183.14 32.26C181.88 32.26 181.56 31.45 181.56 30.3V23.72Z" fill="white"/>
<path d="M185.23 23.72H184.19V22.36H186.77V30.09C186.77 30.62 186.92 30.79 187.33 30.79C187.53 30.79 187.74 30.76 187.93 30.72L187.96 32.08C187.65 32.19 187.25 32.26 186.81 32.26C185.55 32.26 185.23 31.45 185.23 30.3V23.72Z" fill="white"/>
<path d="M193.59 30.33L194.09 31.56C193.42 31.98 192.49 32.26 191.65 32.26C189.44 32.26 188.53 30.86 188.53 28.91C188.53 27.09 189.51 25.58 191.47 25.58C193.43 25.58 194.16 26.97 194.16 28.34C194.16 28.69 194.12 29.17 194.05 29.43H190.18C190.21 30.33 190.68 30.87 191.66 30.87C192.33 30.87 192.99 30.67 193.58 30.32L193.59 30.33ZM192.64 28.26C192.65 28.18 192.65 28.11 192.65 28.06C192.65 27.27 192.12 26.88 191.47 26.88C190.59 26.88 190.25 27.5 190.19 28.25H192.63L192.64 28.26Z" fill="white"/>
<path d="M202.94 30.33L203.44 31.56C202.77 31.98 201.84 32.26 201 32.26C198.79 32.26 197.88 30.86 197.88 28.91C197.88 27.09 198.86 25.58 200.82 25.58C202.78 25.58 203.51 26.97 203.51 28.34C203.51 28.69 203.47 29.17 203.4 29.43H199.53C199.56 30.33 200.03 30.87 201.01 30.87C201.68 30.87 202.34 30.67 202.93 30.32L202.94 30.33ZM201.99 28.26C202 28.18 202 28.11 202 28.06C202 27.27 201.47 26.88 200.82 26.88C199.94 26.88 199.6 27.5 199.54 28.25H201.98L201.99 28.26Z" fill="white"/>
<path d="M206.86 30.05C206.86 30.57 207.15 30.79 207.59 30.79C207.81 30.79 208.26 30.75 208.56 30.69L208.6 32.06C208.26 32.17 207.58 32.26 207.12 32.26C205.82 32.26 205.31 31.41 205.31 30.27V27.08H204.15V25.86L205.31 25.72V24.15L206.86 23.9V25.72H208.37V27.08H206.86V30.05Z" fill="white"/>
<path d="M130.84 17.52C130.22 18.07 129.45 18.25 128.66 18.25C125.75 18.25 124.71 16.16 124.71 13.37C124.71 10.58 125.73 8.46997 128.69 8.46997C131.65 8.46997 132.67 10.59 132.67 13.37C132.67 14.25 132.56 15.08 132.32 15.78C132.85 16.48 133.24 17.28 133.5 18.09H131.83C131.28 16.54 129.8 14.6 127.36 14.6C127.11 14.6 126.84 14.61 126.57 14.64C126.77 15.94 127.33 16.77 128.69 16.77C129.24 16.77 129.69 16.67 130.03 16.32C130.34 16.59 130.66 17.03 130.84 17.51V17.52ZM126.48 13.28C126.77 13.25 127.1 13.22 127.43 13.22C128.72 13.22 129.87 13.64 130.81 14.31C130.85 14.03 130.87 13.72 130.87 13.37C130.87 11.34 130.41 9.94997 128.7 9.94997C126.99 9.94997 126.5 11.29 126.49 13.27L126.48 13.28Z" fill="white"/>
<path d="M140.38 16.74H141.33V18.1H139.14V16.98C138.8 17.54 138.08 18.24 136.77 18.24C135.4 18.24 134.7 17.39 134.7 15.72V13.06H133.78V11.72H136.26V15.56C136.26 16.33 136.51 16.78 137.44 16.78C138 16.78 138.59 16.47 138.84 16.01V13.07H137.66V11.73H140.38V16.76V16.74Z" fill="white"/>
<path d="M143.87 13.97H142.5C142.36 13.7 142.29 13.41 142.29 13.1C142.29 12.22 143.1 11.57 144.87 11.57C146.76 11.57 147.43 12.13 147.43 13.95V16.43C147.43 16.7 147.57 16.81 147.79 16.81C147.93 16.81 148.06 16.8 148.17 16.77V18.1C147.9 18.16 147.57 18.18 147.26 18.18C146.45 18.18 146.03 17.79 145.94 17.2C145.59 17.72 144.89 18.25 143.84 18.25C142.65 18.25 141.92 17.55 141.92 16.42C141.92 15.02 143.14 14.57 145.03 14.43L145.83 14.35V13.06C145.62 13 145.14 12.98 144.86 12.98C144.41 12.98 144.23 12.99 143.87 13.06V13.97ZM144.36 16.95C144.95 16.95 145.49 16.67 145.83 16.36V15.38L145.03 15.48C143.91 15.61 143.59 15.83 143.59 16.29C143.59 16.72 143.86 16.95 144.36 16.95Z" fill="white"/>
<path d="M149.26 9.70998H148.22V8.34998H150.8V16.08C150.8 16.61 150.95 16.78 151.36 16.78C151.56 16.78 151.77 16.75 151.96 16.71L151.99 18.07C151.68 18.18 151.28 18.25 150.84 18.25C149.58 18.25 149.26 17.44 149.26 16.29V9.70998Z" fill="white"/>
<path d="M152.54 16.75H153.88V13.07H152.54V11.71H155.44V16.75H156.69V18.09H152.54V16.75ZM153.62 9.49002C153.62 8.82002 154.04 8.52002 154.6 8.52002C155.09 8.52002 155.57 8.81002 155.57 9.49002C155.57 10.17 155.09 10.43 154.6 10.43C154.04 10.43 153.62 10.18 153.62 9.49002Z" fill="white"/>
<path d="M159.61 16.04C159.61 16.56 159.9 16.78 160.34 16.78C160.56 16.78 161.01 16.74 161.31 16.68L161.35 18.05C161.01 18.16 160.33 18.25 159.87 18.25C158.57 18.25 158.06 17.4 158.06 16.26V13.07H156.9V11.85L158.06 11.71V10.14L159.61 9.89001V11.71H161.12V13.07H159.61V16.04Z" fill="white"/>
<path d="M167.1 16.32L167.6 17.55C166.93 17.97 166 18.25 165.16 18.25C162.95 18.25 162.04 16.85 162.04 14.9C162.04 13.08 163.02 11.57 164.98 11.57C166.94 11.57 167.67 12.96 167.67 14.33C167.67 14.68 167.63 15.16 167.56 15.42H163.69C163.72 16.32 164.19 16.86 165.17 16.86C165.84 16.86 166.5 16.66 167.09 16.31L167.1 16.32ZM166.15 14.25C166.16 14.17 166.16 14.1 166.16 14.05C166.16 13.26 165.63 12.87 164.98 12.87C164.1 12.87 163.76 13.49 163.7 14.24H166.14L166.15 14.25ZM166.84 8.34998L165.62 10.63H164.2L165.22 8.34998H166.83H166.84Z" fill="white"/>
<path d="M171.76 9.70998H170.72V8.34998H173.3V16.08C173.3 16.61 173.45 16.78 173.86 16.78C174.06 16.78 174.27 16.75 174.46 16.71L174.49 18.07C174.18 18.18 173.78 18.25 173.34 18.25C172.08 18.25 171.76 17.44 171.76 16.29V9.70998Z" fill="white"/>
<path d="M181.17 14.89C181.17 16.88 180.36 18.25 178.09 18.25C175.82 18.25 175.06 16.86 175.06 14.92C175.06 12.98 175.89 11.57 178.14 11.57C180.39 11.57 181.17 12.94 181.17 14.89ZM179.53 14.92C179.53 13.6 179.18 13.01 178.1 13.01C177.02 13.01 176.7 13.6 176.7 14.89C176.7 16.18 177.08 16.81 178.13 16.81C179.18 16.81 179.53 16.19 179.53 14.92Z" fill="white"/>
<path d="M187.32 12.89C187.54 13.17 187.68 13.67 187.68 14.16C187.68 15.63 186.57 16.4 184.99 16.4C184.6 16.4 184.16 16.36 183.88 16.26L183.82 17.11H185.95C187.28 17.11 188.11 17.71 188.11 18.9C188.11 20.32 186.85 21.25 184.75 21.25C182.65 21.25 181.88 20.58 181.88 19.58C181.88 18.85 182.51 18.39 182.96 18.29C182.62 18.12 182.41 17.73 182.41 17.38C182.41 16.76 182.83 16.36 183.19 16.08C182.49 15.7 182.1 14.99 182.1 14.06C182.1 12.6 183.07 11.55 185 11.55C185.62 11.55 186.33 11.76 186.68 12.03C187.13 11.34 187.77 11.15 188.44 11.19L188.47 12.73L187.31 12.87L187.32 12.89ZM183.41 19.22C183.41 19.71 183.73 20.06 184.81 20.06C185.8 20.06 186.48 19.75 186.48 19.16C186.48 18.8 186.28 18.5 185.63 18.5H183.84C183.62 18.67 183.42 18.89 183.42 19.21L183.41 19.22ZM186.21 14.11C186.21 13.42 185.83 12.95 184.95 12.95C184.01 12.95 183.65 13.43 183.65 14.11C183.65 14.75 183.96 15.23 184.95 15.23C185.87 15.23 186.21 14.77 186.21 14.11Z" fill="white"/>
<path d="M188.99 16.75H190.33V13.07H188.99V11.71H191.89V16.75H193.14V18.09H188.99V16.75ZM190.07 9.49002C190.07 8.82002 190.49 8.52002 191.05 8.52002C191.54 8.52002 192.02 8.81002 192.02 9.49002C192.02 10.17 191.54 10.43 191.05 10.43C190.49 10.43 190.07 10.18 190.07 9.49002Z" fill="white"/>
<path d="M198.73 13.7H197.5L197.32 12.85C197.07 12.75 196.79 12.7 196.44 12.7C195.88 12.7 195.63 13.02 195.63 13.37C195.63 13.68 195.76 13.9 196.22 14.06L197.23 14.37C198.39 14.73 198.98 15.31 198.98 16.3C198.98 17.29 198.32 18.26 196.33 18.26C195.35 18.26 194.61 18.11 193.92 17.83L193.81 16.01H195.04L195.32 16.96C195.57 17.09 195.94 17.16 196.32 17.16C196.87 17.16 197.22 16.92 197.22 16.49C197.22 16.18 197.02 15.94 196.6 15.8L195.54 15.46C194.46 15.12 193.9 14.52 193.9 13.55C193.9 12.65 194.47 11.58 196.45 11.58C197.28 11.58 198.2 11.75 198.75 11.99V13.71L198.73 13.7Z" fill="white"/>
<path d="M202.31 16.04C202.31 16.56 202.6 16.78 203.04 16.78C203.26 16.78 203.71 16.74 204.01 16.68L204.05 18.05C203.71 18.16 203.03 18.25 202.57 18.25C201.27 18.25 200.76 17.4 200.76 16.26V13.07H199.6V11.85L200.76 11.71V10.14L202.31 9.89001V11.71H203.82V13.07H202.31V16.04Z" fill="white"/>
<path d="M204.73 16.75H206.07V13.07H204.73V11.71H207.63V16.75H208.88V18.09H204.73V16.75ZM205.81 9.49002C205.81 8.82002 206.23 8.52002 206.79 8.52002C207.28 8.52002 207.76 8.81002 207.76 9.49002C207.76 10.17 207.28 10.43 206.79 10.43C206.23 10.43 205.81 10.18 205.81 9.49002Z" fill="white"/>
<path d="M212.4 21.12V19.76H213.84V17.59C213.53 17.91 213.07 18.25 212.19 18.25C210.37 18.25 209.5 17 209.5 14.92C209.5 12.84 210.42 11.57 212.19 11.57C213.11 11.57 213.66 11.95 214.11 12.34L214.33 11.15H215.39V19.71L216.22 19.91V21.13H212.4V21.12ZM213.84 13.57C213.6 13.3 213.17 13.04 212.58 13.04C211.43 13.04 211.14 13.84 211.14 14.92C211.14 16 211.45 16.78 212.58 16.78C213.25 16.78 213.64 16.5 213.84 16.32V13.57Z" fill="white"/>
<path d="M223.03 16.74H223.98V18.1H221.79V16.98C221.45 17.54 220.73 18.24 219.42 18.24C218.05 18.24 217.35 17.39 217.35 15.72V13.06H216.43V11.72H218.91V15.56C218.91 16.33 219.16 16.78 220.09 16.78C220.65 16.78 221.24 16.47 221.49 16.01V13.07H220.31V11.73H223.03V16.76V16.74Z" fill="white"/>
<path d="M229.72 16.32L230.22 17.55C229.55 17.97 228.62 18.25 227.78 18.25C225.57 18.25 224.66 16.85 224.66 14.9C224.66 13.08 225.64 11.57 227.6 11.57C229.56 11.57 230.29 12.96 230.29 14.33C230.29 14.68 230.25 15.16 230.18 15.42H226.31C226.34 16.32 226.81 16.86 227.79 16.86C228.46 16.86 229.12 16.66 229.71 16.31L229.72 16.32ZM228.77 14.25C228.78 14.17 228.78 14.1 228.78 14.05C228.78 13.26 228.25 12.87 227.6 12.87C226.72 12.87 226.38 13.49 226.32 14.24H228.76L228.77 14.25Z" fill="white"/>
<path d="M223.83 48.03C223.71 48.03 223.58 48 223.47 47.93C223.12 47.73 223 47.29 223.2 46.94L249.53 1.35998C249.73 1.00998 250.18 0.889982 250.52 1.08998C250.87 1.28998 250.99 1.72998 250.79 2.07998L224.46 47.65C224.33 47.88 224.08 48.01 223.83 48.01" fill="white"/>
</g>
<path d="M279.512 38.9869C279.967 38.3703 280.195 37.6574 280.195 36.8482C280.195 35.9234 279.854 35.1334 279.208 34.4591C278.582 33.804 277.785 33.4572 276.855 33.4572H273.571C273.116 33.4572 272.793 33.7848 272.793 34.2472V44.9789C272.793 45.4413 273.116 45.7688 273.571 45.7688H277.234C278.183 45.7688 279.019 45.422 279.702 44.7284C280.385 44.0348 280.746 43.1871 280.746 42.2237V41.742C280.746 41.0484 280.556 40.3741 280.176 39.7768C279.986 39.4878 279.759 39.2181 279.512 38.9869ZM277.557 37.7345C277.348 37.9464 277.064 38.062 276.703 38.062H275.147V35.8271H276.874C277.178 35.8271 277.386 35.9041 277.595 36.1161C277.804 36.328 277.899 36.5399 277.899 36.8482C277.88 37.2143 277.785 37.484 277.557 37.7345ZM275.128 40.4126H277.083C277.443 40.4126 277.747 40.5475 278.013 40.798C278.278 41.0677 278.411 41.3952 278.411 41.7613V42.243C278.411 42.5513 278.297 42.821 278.07 43.0715C277.842 43.3027 277.576 43.4183 277.234 43.4183H275.128V40.4126Z" fill="white"/>
<path d="M286.762 33.303C285.642 33.303 284.655 33.7076 283.858 34.5169C283.061 35.3261 282.663 36.3087 282.663 37.4647V41.8383C282.663 42.9751 283.061 43.977 283.858 44.7862C284.655 45.5954 285.623 46 286.762 46C287.901 46 288.869 45.5954 289.666 44.7862C290.463 43.977 290.862 42.9943 290.862 41.8383V37.4647C290.862 36.328 290.463 35.3261 289.666 34.5169C288.869 33.7076 287.901 33.303 286.762 33.303ZM284.997 37.4454C284.997 36.9445 285.168 36.5206 285.528 36.1738C285.87 35.827 286.288 35.6536 286.781 35.6536C287.275 35.6536 287.692 35.827 288.034 36.1738C288.394 36.5399 288.565 36.9445 288.565 37.4454V41.8191C288.565 42.3393 288.394 42.7246 288.034 43.0907C287.673 43.4568 287.275 43.6302 286.781 43.6302C286.288 43.6302 285.889 43.4568 285.528 43.0907C285.168 42.7439 285.016 42.3393 285.016 41.8383L284.997 37.4454Z" fill="white"/>
<path d="M307.298 33.4572H304.679C304.223 33.4572 303.901 33.7848 303.901 34.2472V44.9789C303.901 45.4413 304.223 45.7688 304.679 45.7688H307.678C308.778 45.7688 309.727 45.3642 310.505 44.5743C311.284 43.7843 311.682 42.821 311.682 41.7035V37.8694C311.682 36.6555 311.246 35.5959 310.392 34.7288C309.538 33.9004 308.513 33.4572 307.298 33.4572ZM307.697 43.4183H306.235V35.8271H307.298C307.867 35.8271 308.342 36.0197 308.74 36.4436C309.158 36.8675 309.348 37.3492 309.348 37.9079V41.7228C309.348 42.2044 309.196 42.5705 308.854 42.9173C308.532 43.2449 308.152 43.4183 307.697 43.4183Z" fill="white"/>
<path d="M320.337 43.4182H316.484V40.3933H319.692C320.128 40.3933 320.451 40.0465 320.451 39.6034V38.8327C320.451 38.3703 320.128 38.0427 319.692 38.0427H316.484V35.827H320.242C320.678 35.827 321.02 35.4802 321.02 35.0371V34.2664C321.02 33.804 320.697 33.4764 320.242 33.4764H314.947C314.491 33.4764 314.169 33.804 314.169 34.2664V44.9981C314.169 45.4605 314.491 45.7881 314.947 45.7881H320.337C320.792 45.7881 321.115 45.4605 321.115 44.9981V44.2274C321.115 43.7458 320.792 43.4182 320.337 43.4182Z" fill="white"/>
<path d="M329.01 34.016C328.897 33.6692 328.612 33.4572 328.27 33.4572H326.866C326.524 33.4572 326.239 33.6692 326.126 34.016L322.918 44.6514C322.88 44.7477 322.861 44.844 322.861 44.9596C322.861 45.422 323.184 45.7496 323.639 45.7496H324.436C324.797 45.7496 325.101 45.5184 325.177 45.1908L326.126 42.0696H329.01L329.959 45.2101L329.978 45.2486C330.111 45.5569 330.377 45.7496 330.719 45.7496H331.516C331.952 45.7496 332.294 45.4028 332.294 44.9596C332.294 44.844 332.275 44.7477 332.237 44.6706L329.01 34.016ZM328.441 39.719H326.714L327.568 36.7711L328.441 39.719Z" fill="white"/>
<path d="M340.949 33.4572H340.189C339.734 33.4572 339.411 33.7848 339.411 34.2472V42.0696C339.411 42.5127 339.278 42.8595 338.975 43.1485C338.671 43.4568 338.329 43.6109 337.912 43.6109C337.494 43.6109 337.153 43.4568 336.83 43.1485C336.545 42.8595 336.394 42.4935 336.394 42.0696V34.2472C336.394 33.7848 336.071 33.4572 335.615 33.4572H334.856C334.401 33.4572 334.078 33.7848 334.078 34.2472V42.0696C334.078 43.1485 334.458 44.0733 335.198 44.8248C335.938 45.5762 336.868 45.9615 337.912 45.9615C338.975 45.9615 339.886 45.5762 340.626 44.8055C341.366 44.0348 341.727 43.11 341.727 42.0503V34.2279C341.727 33.7848 341.404 33.4572 340.949 33.4572Z" fill="white"/>
<path d="M348.996 39.5841L351.71 34.5554L351.767 34.4205C351.843 34.093 351.729 33.8618 351.634 33.7269C351.558 33.6113 351.349 33.4379 351.027 33.4379H350.248C349.926 33.4379 349.66 33.6113 349.546 33.8811L347.743 37.2335L345.94 33.9003C345.826 33.6113 345.561 33.4379 345.238 33.4379H344.46C344.118 33.4379 343.928 33.6113 343.852 33.7269C343.757 33.8618 343.644 34.093 343.72 34.4398L343.776 34.5747L346.472 39.5841L343.776 44.5743L343.739 44.6706C343.625 45.0367 343.757 45.2871 343.833 45.4027C343.909 45.5183 344.118 45.711 344.46 45.711H345.257C345.561 45.711 345.826 45.5376 345.959 45.2486L347.743 41.9347L349.508 45.2293C349.641 45.5183 349.907 45.711 350.211 45.711H351.008C351.368 45.711 351.558 45.5183 351.634 45.4027C351.729 45.2871 351.843 45.0367 351.729 44.6513L348.996 39.5841Z" fill="white"/>
<path d="M301.357 44.6706L299.251 40.586C299.516 40.4318 299.763 40.2392 299.991 40.008C300.655 39.3336 300.997 38.5051 300.997 37.561V36.9445C300.997 35.9812 300.655 35.1527 299.991 34.4783C299.327 33.804 298.529 33.4764 297.58 33.4764H294.164C293.709 33.4764 293.386 33.804 293.386 34.2664V44.9981C293.386 45.4605 293.709 45.7881 294.164 45.7881H294.923C295.36 45.7881 295.701 45.4413 295.701 44.9981V41.0291H296.935L299.118 45.2679C299.251 45.5761 299.516 45.7495 299.82 45.7495H300.617C300.978 45.7495 301.168 45.5569 301.243 45.4413C301.338 45.3257 301.452 45.0752 301.338 44.7091C301.357 44.6898 301.357 44.6898 301.357 44.6706ZM298.662 36.9445V37.561C298.662 37.8693 298.567 38.1005 298.34 38.3317C298.112 38.5629 297.884 38.6593 297.58 38.6593H295.72V35.827H297.58C297.884 35.827 298.131 35.9234 298.34 36.1353C298.567 36.3858 298.662 36.617 298.662 36.9445Z" fill="white"/>
<path d="M264.898 39.0639H264.651C264.594 39.0639 264.575 39.0254 264.575 38.9868V38.9098C264.575 38.852 264.537 38.8327 264.499 38.8327C264.48 38.8327 264.461 38.8327 264.461 38.852C264.177 39.0832 263.873 39.1795 263.55 39.1795C262.962 39.1795 262.506 38.8712 262.165 38.2547C262.127 38.1776 262.089 38.0813 262.089 37.9849V36.5399C262.089 35.9619 262.374 35.5188 262.943 35.172C262.962 35.1527 262.981 35.1527 263 35.1527C263.493 35.0178 263.949 35.0564 264.309 35.3068C264.328 35.3068 264.347 35.3261 264.366 35.3261C264.423 35.3261 264.442 35.3068 264.442 35.249V33.5728C264.442 33.515 264.48 33.4957 264.518 33.4957H264.917C264.974 33.4957 264.993 33.515 264.993 33.5728V38.9868C264.974 39.0446 264.955 39.0639 264.898 39.0639ZM264.404 36.5206C264.404 36.2702 264.328 36.0582 264.139 35.8656C263.949 35.6729 263.74 35.5958 263.493 35.5958C263.247 35.5958 263.019 35.6729 262.848 35.8656C262.677 36.039 262.582 36.2509 262.582 36.5206V37.6959C262.582 37.9464 262.677 38.1583 262.848 38.351C263.019 38.5244 263.247 38.6208 263.493 38.6208C263.74 38.6208 263.949 38.5244 264.139 38.351C264.328 38.1583 264.404 37.9464 264.404 37.6959V36.5206Z" fill="white"/>
<path d="M268.618 37.3684H266.549C266.492 37.3684 266.473 37.4069 266.473 37.4454V37.6766C266.473 37.9464 266.568 38.1583 266.739 38.3317C266.929 38.5244 267.137 38.6014 267.384 38.6014C267.707 38.6014 267.991 38.5051 268.257 38.3317C268.295 38.2932 268.333 38.3124 268.371 38.351L268.599 38.6785C268.637 38.717 268.618 38.7556 268.58 38.7941C268.143 39.1217 267.612 39.2373 267.023 39.1409C266.929 39.1217 266.853 39.1024 266.777 39.0446C266.226 38.6978 265.942 38.2546 265.942 37.6766V36.1353C265.942 36.0582 265.961 35.9811 265.999 35.9233C266.321 35.3453 266.777 35.037 267.327 35.037C267.707 35.037 268.048 35.1719 268.314 35.4609C268.58 35.7499 268.713 36.0582 268.713 36.4435V37.272C268.694 37.3298 268.675 37.3684 268.618 37.3684ZM268.143 36.4628C268.143 36.2316 268.067 36.0389 267.897 35.8655C267.726 35.6921 267.536 35.6151 267.308 35.6151C267.08 35.6151 266.891 35.6921 266.72 35.8655C266.549 36.0389 266.473 36.2316 266.473 36.4628V36.7325C266.473 36.7903 266.511 36.8096 266.549 36.8096H268.048C268.105 36.8096 268.124 36.7711 268.124 36.7325V36.4628H268.143Z" fill="white"/>
<path d="M295.844 11.6084C295.844 11.4137 295.904 11.2325 296.057 11.1091C296.199 10.9947 296.381 10.9629 296.556 10.9629H303.255C303.39 10.9629 303.437 10.929 303.453 10.913C303.469 10.897 303.493 10.8583 303.493 10.7606V8.6798C303.493 8.62484 303.486 8.59239 303.48 8.57444C303.475 8.55932 303.47 8.5552 303.468 8.55318C303.458 8.54467 303.411 8.51611 303.255 8.51611H296.556C296.36 8.51611 296.177 8.45973 296.042 8.33021C295.905 8.19915 295.844 8.01978 295.844 7.83198V2.86113C295.844 2.76568 295.817 2.72688 295.798 2.7091C295.775 2.68803 295.722 2.65887 295.607 2.65886H293.367C293.259 2.65886 293.204 2.68919 293.178 2.7138C293.154 2.73688 293.13 2.77925 293.13 2.86113V7.81279C293.13 8.00632 293.071 8.18909 292.929 8.32062C292.79 8.44885 292.607 8.49672 292.418 8.49673H289.875C289.727 8.49673 289.678 8.52739 289.666 8.53831C289.661 8.54253 289.638 8.5633 289.638 8.66061V10.722C289.638 10.8334 289.663 10.8681 289.674 10.8791C289.687 10.8919 289.733 10.9245 289.875 10.9245H292.418C292.6 10.9245 292.781 10.9641 292.92 11.0805C293.067 11.2036 293.13 11.3802 293.13 11.5699V21.9932H292.655V11.5699C292.655 11.4898 292.632 11.464 292.618 11.4523C292.596 11.4338 292.54 11.4062 292.418 11.4062H289.875C289.674 11.4062 289.483 11.3615 289.344 11.225C289.204 11.0866 289.163 10.8996 289.163 10.722V8.66061C289.163 8.4882 289.206 8.30657 289.353 8.17593C289.493 8.05195 289.681 8.01505 289.875 8.01505H292.418C292.533 8.01504 292.587 7.98588 292.609 7.96482C292.629 7.94702 292.655 7.90823 292.655 7.81279V2.86113C292.655 2.67334 292.716 2.49413 292.853 2.36308C292.989 2.23356 293.172 2.17719 293.367 2.17719H295.607C295.795 2.17719 295.979 2.22505 296.118 2.3533C296.26 2.48482 296.318 2.66764 296.318 2.86113V7.83198C296.318 7.91392 296.343 7.95642 296.367 7.97949C296.393 8.00409 296.447 8.03443 296.556 8.03443H303.255C303.442 8.03443 303.632 8.06361 303.774 8.18515C303.926 8.31583 303.967 8.50247 303.967 8.6798V10.7606C303.967 10.9326 303.924 11.1154 303.788 11.2536C303.652 11.3917 303.463 11.4445 303.255 11.4445H296.556C296.426 11.4445 296.371 11.4706 296.352 11.4863C296.344 11.493 296.318 11.5144 296.318 11.6084V22.0318H295.844V11.6084Z" fill="white"/>
<path d="M296.1 16.8683L296.119 22.5521C296.081 23.9586 296.271 25.1338 296.65 26.0587C297.03 26.9835 297.979 27.4459 299.459 27.4459C300.029 27.4459 300.731 27.3303 301.566 27.0991C302.401 26.8679 303.369 26.5211 304.451 26.0587C304.489 26.1743 304.508 26.2706 304.508 26.3477C304.508 26.4055 304.527 26.4825 304.546 26.5596C303.939 27.1569 302.838 27.7542 301.225 28.3322C299.611 28.9102 298.169 29.2184 296.859 29.2184C295.739 29.2184 294.772 28.8716 293.974 28.178C293.177 27.4844 292.779 26.2706 292.779 24.5558V22.1667L292.912 18.4674" fill="white"/>
<path d="M296.356 22.5513V22.5586C296.319 23.941 296.506 25.0806 296.869 25.9659C297.194 26.7574 298.018 27.2051 299.459 27.2051C300 27.2051 300.68 27.0947 301.504 26.8666C302.326 26.6389 303.284 26.296 304.359 25.8366L304.595 25.7358L304.676 25.9825C304.718 26.1101 304.745 26.2342 304.745 26.3477C304.745 26.3689 304.754 26.4127 304.776 26.5012L304.809 26.6359L304.711 26.7326C304.066 27.3673 302.925 27.9784 301.303 28.5592C299.675 29.1428 298.205 29.4592 296.859 29.4592C295.687 29.4592 294.663 29.0949 293.82 28.3609C292.945 27.5997 292.541 26.2983 292.541 24.5559V22.1623L292.542 22.1578L292.674 18.4587L293.149 18.4762L293.016 22.1703V24.5559C293.016 26.2429 293.409 27.3692 294.129 27.9951C294.879 28.6484 295.791 28.9775 296.859 28.9775C298.133 28.9775 299.548 28.6775 301.146 28.105C302.664 27.5608 303.696 27.009 304.284 26.4769C304.28 26.4498 304.275 26.4218 304.273 26.3943C303.292 26.8034 302.406 27.1162 301.629 27.3313C300.783 27.5656 300.058 27.6867 299.459 27.6868C297.94 27.6868 296.866 27.2093 296.431 26.1512C296.036 25.1886 295.844 23.9801 295.882 22.5528L295.863 16.869L296.337 16.8675L296.356 22.5513Z" fill="white"/>
<path d="M271.427 15.5774V22.2052C271.427 23.3805 271.863 24.3824 272.774 25.2302C273.685 26.0779 274.729 26.4825 276.039 26.4825C277.31 26.4825 278.392 26.0779 279.265 25.2302C280.176 24.3824 280.651 23.3805 280.651 22.2052V8.71833C280.651 8.42932 280.784 8.31372 281.087 8.31372H283.346C283.65 8.31372 283.82 8.42932 283.82 8.71833V22.2052C283.82 24.1897 283.042 25.8852 281.505 27.2917C279.968 28.6982 278.145 29.4304 276.02 29.4304C273.894 29.4304 272.015 28.6982 270.497 27.2917C268.978 25.8852 268.238 24.1897 268.238 22.2052V15.5774H271.427Z" fill="white"/>
<path d="M271.189 22.2052V15.8183H268.475V22.2052C268.475 24.1197 269.186 25.7514 270.657 27.1137C272.13 28.4786 273.952 29.1895 276.02 29.1895C278.086 29.1895 279.852 28.48 281.346 27.1128C282.837 25.7484 283.583 24.1162 283.583 22.2052V8.71825C283.583 8.62428 283.558 8.603 283.549 8.59632C283.53 8.58064 283.475 8.55455 283.346 8.55455H281.087C280.956 8.55455 280.92 8.58127 280.914 8.58673C280.912 8.58851 280.907 8.59357 280.901 8.61062C280.894 8.63002 280.888 8.66362 280.888 8.71825V22.2052C280.888 23.4562 280.379 24.5202 279.426 25.4077C278.504 26.3004 277.363 26.7233 276.039 26.7233C274.673 26.7233 273.571 26.2982 272.614 25.4077C271.656 24.5163 271.189 23.4508 271.189 22.2052ZM284.058 22.2052C284.058 24.2631 283.247 26.0221 281.664 27.4707C280.083 28.9164 278.205 29.6711 276.02 29.6711C273.837 29.6711 271.9 28.9178 270.337 27.4697C268.771 26.0191 268.001 24.2596 268.001 22.2052V15.3366H271.664V22.2052C271.664 23.3101 272.071 24.2486 272.935 25.0527C273.8 25.8576 274.785 26.2416 276.039 26.2416C277.256 26.2416 278.277 25.8564 279.101 25.0561L279.103 25.0544L279.105 25.0527C279.973 24.2447 280.414 23.3047 280.414 22.2052V8.71825C280.414 8.54112 280.454 8.35872 280.597 8.22867C280.733 8.10409 280.915 8.07288 281.087 8.07288H283.346C283.52 8.07288 283.703 8.1047 283.845 8.21907C283.998 8.34249 284.057 8.52355 284.058 8.71825V22.2052Z" fill="white"/>
<path d="M271.189 8.834C271.189 8.5046 270.935 8.32335 270.762 8.32335C270.551 8.32336 270.12 8.37384 269.625 8.42796C269.145 8.48058 268.614 8.53521 268.238 8.53521C267.135 8.53521 266.523 8.51596 266.129 8.49645C265.725 8.47644 265.574 8.45826 265.353 8.45826C265.226 8.45827 265.116 8.50218 265.039 8.57567C264.965 8.64663 264.907 8.75946 264.907 8.93034C264.907 9.26391 265.128 9.44076 265.353 9.4408C265.451 9.4408 265.539 9.43158 265.655 9.41578C265.771 9.40011 265.917 9.37765 266.115 9.35557C266.515 9.31102 267.131 9.26751 268.238 9.26751H268.475V15.3366H271.189V8.834ZM271.664 15.8183H268.001V9.75031C267.055 9.75605 266.517 9.79542 266.167 9.83442C265.976 9.85568 265.842 9.87646 265.718 9.89331C265.595 9.91002 265.483 9.92248 265.353 9.92248C264.857 9.92244 264.433 9.52142 264.433 8.93034C264.433 8.63886 264.536 8.3952 264.714 8.22532C264.888 8.058 265.12 7.9766 265.353 7.97658C265.588 7.97658 265.779 7.99682 266.152 8.01534C266.537 8.03437 267.14 8.05354 268.238 8.05354C268.583 8.05354 269.087 8.00246 269.574 7.94911C270.048 7.89728 270.518 7.84169 270.762 7.84167C271.197 7.84167 271.664 8.23858 271.664 8.834V15.8183Z" fill="white"/>
<path d="M260.979 3.15008C260.979 2.42339 260.625 1.75808 260.079 1.2691C259.532 0.779303 258.809 0.481676 258.103 0.481676C257.458 0.481701 256.799 0.806861 256.297 1.31671C255.795 1.82655 255.475 2.49557 255.474 3.15008C255.474 3.85999 255.756 4.61018 256.232 5.1814C256.707 5.75093 257.361 6.12685 258.103 6.12688C259.75 6.12688 260.979 4.83396 260.979 3.15008ZM261.453 3.15008C261.453 5.08841 260.024 6.60855 258.103 6.60855C257.194 6.60853 256.415 6.1465 255.87 5.49261C255.326 4.84037 255 3.98153 255 3.15008C255 2.34036 255.392 1.55485 255.962 0.976146C256.532 0.397441 257.305 2.46451e-05 258.103 0C258.935 0 259.768 0.34778 260.393 0.908034C261.019 1.46907 261.453 2.25843 261.453 3.15008Z" fill="white"/>
<path d="M260.589 14.8066V28.4477C260.589 28.7367 260.438 28.8908 260.153 28.8908H258.122C257.799 28.8908 257.686 28.7367 257.686 28.4477V16.7719L260.589 14.8066Z" fill="white"/>
<path d="M260.352 15.2566L257.923 16.9007V28.4477C257.923 28.5674 257.948 28.6039 257.956 28.6131C257.962 28.619 257.993 28.65 258.122 28.65H260.153C260.255 28.65 260.295 28.623 260.31 28.6075C260.326 28.5919 260.352 28.5511 260.352 28.4477V15.2566ZM260.827 28.4477C260.827 28.6333 260.778 28.8143 260.646 28.948C260.514 29.0817 260.336 29.1317 260.153 29.1317H258.122C257.928 29.1316 257.742 29.0856 257.61 28.9422C257.48 28.802 257.448 28.617 257.448 28.4477V16.6431L260.827 14.3566V28.4477Z" fill="white"/>
<path d="M260.827 7.97656V14.9356L257.448 17.2219V11.117H255.247V7.97656H260.827ZM255.721 10.6354H257.923V16.322L260.352 14.6777V8.45824H255.721V10.6354Z" fill="white"/>
</g>
<defs>
<clipPath id="clip0_32_2">
<rect width="351" height="48" fill="white"/>
</clipPath>
</defs>
</svg>
