<svg width="121" height="48" viewBox="0 0 121 48" fill="none" xmlns="http://www.w3.org/2000/svg">
<path d="M119.558 25.63C119.448 32.49 116.308 37.64 110.588 41.26C108.488 42.59 106.318 43.29 103.848 43.62C99.1176 44.25 94.8576 43.01 91.0076 40.3C86.8576 37.38 84.3876 33.34 83.6276 28.35C83.2676 25.99 83.2976 23.57 83.9876 21.23C84.0876 20.89 84.3876 20.5 84.7076 20.35C87.6276 18.98 90.5776 17.71 93.4876 16.32C96.2076 15.02 98.9076 13.67 101.568 12.26C103.628 11.17 105.618 9.94002 107.658 8.80002C107.848 8.70002 108.158 8.68002 108.358 8.76002C111.678 10.19 114.298 12.25 116.328 15.3C118.408 18.42 119.638 21.81 119.568 25.62L119.558 25.63ZM112.448 25.8C112.668 19.53 107.878 14.28 101.128 14.51C95.4476 14.7 90.5576 19.08 90.5376 25.57C90.5076 32.36 95.4876 36.65 101.448 36.74C107.978 36.84 112.608 31.71 112.448 25.8Z" fill="#3B1C13"/>
<path d="M50.9676 31.14C50.9676 32.3 50.9676 33.4 50.9676 34.5C50.9576 35.97 51.2376 36.26 52.7076 36.26C56.7476 36.26 60.7776 36.26 64.8176 36.26C66.0576 36.26 66.4176 36.64 66.4176 37.9C66.4176 39.22 66.4176 40.54 66.4176 41.86C66.4176 42.78 65.8576 43.3 64.9476 43.3C58.5876 43.29 52.2276 43.28 45.8676 43.27C45.6276 43.27 45.3776 43.27 45.1376 43.25C44.3476 43.17 43.9576 42.82 43.9576 42.03C43.9276 39.07 43.9376 36.11 43.9576 33.15C43.9576 32.96 44.2176 32.66 44.4076 32.61C46.5076 32.09 48.6176 31.61 50.7176 31.13C50.7876 31.11 50.8576 31.13 50.9876 31.14H50.9676Z" fill="#3B1C13"/>
<path d="M7.62761 38.35C9.62761 38.13 11.5376 37.95 13.4476 37.71C16.1276 37.37 19.0076 37.01 21.6876 36.64C23.4176 36.4 25.1576 36.17 26.8776 35.87C29.3176 35.46 31.7576 34.99 34.1976 34.55C34.7676 34.45 35.3476 34.31 35.9176 34.25C36.0676 34.23 36.3076 34.43 36.4076 34.59C36.7176 35.09 36.9076 35.69 37.2676 36.14C37.7976 36.8 38.4176 37.41 39.0576 37.97C39.6476 38.49 39.5576 39.04 39.1276 39.5C38.0176 40.7 36.8576 41.86 35.6976 43C35.2776 43.41 34.7676 43.41 34.3176 43C33.7276 42.46 33.1476 41.89 32.5676 41.34C31.6076 40.43 31.0276 40.46 29.8976 41.04C28.3276 41.84 26.7176 42.62 25.0376 43.16C23.3076 43.72 21.4576 43.94 19.6276 43.79C15.1476 43.43 11.0176 41.8 7.76761 38.65C7.71761 38.6 7.69761 38.53 7.61761 38.37L7.62761 38.35Z" fill="#3B1C13"/>
<path d="M77.9476 22.93C77.9476 23.55 77.9476 24.09 77.9476 24.62C77.9476 30.07 77.9476 35.53 77.9476 40.98C77.9476 41.22 77.9576 41.47 77.9776 41.71C78.0276 42.62 77.4876 43.29 76.6076 43.3C75.1176 43.31 73.6276 43.3 72.1376 43.25C71.3076 43.23 70.9976 42.9 70.9876 42.07C70.9476 39.24 70.9276 36.4 70.9176 33.57C70.9076 31.17 70.9176 28.78 70.9176 26.38C70.9176 25.66 71.0576 25.24 71.8976 25C73.6676 24.5 75.3876 23.79 77.1276 23.18C77.3676 23.09 77.6276 23.04 77.9576 22.94L77.9476 22.93Z" fill="#3B1C13"/>
<path d="M16.8076 35.04C16.5076 35.16 16.3776 35.25 16.2476 35.26C13.1476 35.6 9.8576 35.94 6.7576 36.26C6.5676 36.28 6.2876 36.13 6.1576 35.97C3.5676 32.79 2.1176 29.18 2.0076 25.05C1.9576 22.98 2.1476 20.94 2.7776 18.98C3.3676 17.15 4.1776 15.37 5.3976 13.87C6.4376 12.6 7.3976 11.6 8.6176 10.49C10.3276 9.17002 12.1476 8.03002 14.0576 7.34002C16.9376 6.30002 20.1076 6.18002 23.1176 6.56002C26.7776 7.02002 29.9076 8.64002 32.6176 11.08C35.3176 13.51 37.1276 16.52 37.9876 20.02C38.7976 23.31 38.5976 26.6 37.6676 29.91C37.2076 31.54 36.2476 32.07 34.8276 32.31C32.0276 32.8 29.2276 33.31 26.4176 33.76C26.1376 33.81 25.7276 33.66 25.5276 33.45C23.7376 31.69 21.9776 29.91 20.2376 28.09C19.7876 27.62 19.1276 27.21 19.3276 26.38C19.3776 26.16 19.4876 25.92 19.6376 25.77C20.6376 24.76 21.6676 23.76 22.6876 22.76C23.5476 21.91 23.9476 21.91 24.8276 22.78C26.3176 24.26 27.7776 25.76 29.2576 27.24C29.4276 27.41 29.6076 27.59 29.8076 27.72C30.2876 28.04 30.7676 27.93 30.9776 27.44C31.2076 26.91 31.3776 26.29 31.3776 25.72C31.3676 24.48 31.3276 23.23 31.1176 22.02C30.6776 19.57 29.4576 17.52 27.5376 15.92C24.5276 13.41 21.0676 12.75 17.3676 13.72C13.0076 14.86 9.7376 18.36 9.1976 23.11C8.9176 25.55 9.3376 27.81 10.4776 29.97C11.6476 32.17 13.6276 33.67 15.9076 34.63C16.1476 34.73 16.3876 34.85 16.7876 35.02L16.8076 35.04Z" fill="#009DE0"/>
<path d="M43.8376 18.4C43.8376 14.85 43.8276 11.31 43.8476 7.76C43.8476 7.15 43.6676 6.37 44.5676 6.12C44.7776 6.06 44.9976 6.02 45.2076 6.02C46.6476 6.02 48.0976 6.01 49.5376 6.02C50.4976 6.02 50.8776 6.38 50.8876 7.34C50.9076 9.39002 50.8976 11.45 50.8876 13.5C50.8776 18.37 50.8576 23.24 50.8576 28.1C50.8576 28.66 50.6976 28.93 50.1276 29.05C48.3676 29.43 46.6276 29.88 44.8676 30.26C43.9876 30.45 43.8276 30.31 43.8276 29.39C43.8276 25.72 43.8276 22.05 43.8276 18.38L43.8376 18.4Z" fill="#009DE0"/>
<path d="M70.8276 23.1C70.8076 22.71 70.7876 22.45 70.7876 22.19C70.7876 17.35 70.7876 12.51 70.7876 7.67C70.7876 7.36 70.7876 7.03 70.8776 6.73C70.9976 6.27 71.2876 6 71.8276 6C73.3876 6.02 74.9576 6 76.5176 6C77.5076 6 77.8476 6.36 77.8476 7.32C77.8476 11.55 77.8476 15.78 77.8576 20C77.8576 20.58 77.6476 20.85 77.0776 21.03C75.3476 21.58 73.6476 22.21 71.9276 22.8C71.5976 22.91 71.2476 22.97 70.8076 23.08L70.8276 23.1Z" fill="#009DE0"/>
<path d="M105.058 7.64002C98.7276 11.54 92.2076 14.75 85.2676 17.53C86.7576 13.75 89.1376 10.94 92.4976 9.01002C96.9376 6.47002 102.128 6.60002 105.068 7.64002H105.058Z" fill="#009DE0"/>
</svg>
